<?xml version="1.0" standalone="no"?>
<!DOCTYPE svg PUBLIC "-//W3C//DTD SVG 20010904//EN"
 "http://www.w3.org/TR/2001/REC-SVG-20010904/DTD/svg10.dtd">
<svg version="1.0" xmlns="http://www.w3.org/2000/svg"
 width="1280.000000pt" height="853.000000pt" viewBox="0 0 1280.000000 853.000000"
 preserveAspectRatio="xMidYMid meet">
<metadata>
Created by potrace 1.15, written by Peter Selinger 2001-2017
</metadata>
<g transform="translate(0.000000,853.000000) scale(0.100000,-0.100000)"
fill="#000000" stroke="none">
<path d="M1106 8414 c82 -63 157 -123 166 -132 15 -16 16 -28 3 -162 -57 -608
-45 -1302 34 -1890 10 -74 17 -137 15 -139 -3 -3 -1209 426 -1315 467 -5 2 -9
-20 -9 -50 l0 -53 672 -230 672 -230 27 -145 c77 -411 209 -869 353 -1225 l44
-110 -41 -2 c-23 -2 -400 16 -837 40 l-795 42 -45 85 -45 85 -3 -124 c-2 -97
0 -127 12 -140 8 -9 60 -92 116 -186 337 -561 729 -1074 1164 -1522 113 -117
117 -123 95 -132 -13 -4 -331 -107 -706 -227 l-683 -218 0 -52 0 -53 740 250
741 249 40 -38 41 -38 -21 -189 c-65 -595 -63 -1146 8 -1783 l16 -152 -81 -65
-82 -65 -168 64 c-347 130 -649 263 -1006 442 l-228 114 0 -79 0 -78 197 -93
c341 -160 730 -322 983 -410 52 -18 99 -37 104 -41 4 -4 -45 -49 -109 -101
l-117 -93 76 -3 76 -3 83 68 c45 38 89 73 97 80 13 9 37 5 120 -21 57 -18 105
-37 106 -42 1 -5 5 -26 9 -46 l6 -38 56 0 c54 0 55 1 51 25 -7 32 3 32 111 0
79 -23 100 -25 285 -24 l201 1 -125 32 c-69 18 -208 57 -308 86 -208 60 -192
47 -212 178 -11 70 -10 86 1 97 36 34 1322 1086 1324 1083 2 -2 17 -55 35
-118 104 -379 239 -721 442 -1123 l121 -238 51 3 50 3 316 502 c173 276 319
502 323 502 4 1 49 -23 100 -53 109 -63 254 -139 355 -185 49 -22 81 -44 100
-69 40 -53 309 -300 452 -415 69 -55 131 -105 138 -112 11 -10 10 -24 -2 -79
-22 -92 -21 -96 14 -96 28 0 30 3 42 60 7 36 17 59 23 56 6 -2 41 -25 79 -51
49 -35 64 -50 54 -56 -7 -5 27 -9 84 -9 85 0 108 4 200 36 249 87 606 248 803
364 87 51 96 54 254 81 90 16 165 28 166 27 1 -2 26 -117 56 -255 l54 -253 33
0 c17 0 32 2 32 3 0 2 -27 120 -60 262 -33 142 -59 259 -58 260 2 1 23 7 46
13 34 8 76 6 190 -8 238 -31 495 -43 750 -37 l232 7 -77 -103 c-89 -117 -258
-320 -297 -356 -36 -33 -33 -41 14 -41 32 0 46 6 66 28 55 60 255 312 314 395
34 48 67 87 73 87 16 0 185 19 218 25 24 4 38 -14 200 -265 l174 -269 43 -1
c23 0 42 3 42 6 0 3 -78 121 -173 262 -95 142 -176 262 -179 268 -5 7 38 18
125 33 405 69 863 199 1252 355 77 31 142 56 146 56 7 0 -18 -125 -61 -305
-28 -122 -122 -447 -164 -573 l-35 -103 52 3 51 3 43 140 c54 174 135 493 173
677 16 77 32 143 35 146 2 3 13 -2 22 -10 10 -8 285 -227 611 -487 l592 -472
78 3 79 3 -668 515 c-367 283 -668 517 -668 520 0 3 67 36 150 74 452 209
1029 566 1481 918 48 37 92 68 97 68 14 0 71 -322 115 -650 52 -386 82 -776
92 -1188 l7 -262 73 0 73 0 -5 97 c-20 431 -27 545 -45 738 -37 410 -101 844
-174 1190 l-33 160 27 25 c15 14 83 73 152 131 68 58 146 126 172 150 l48 44
-3 76 -3 77 -115 -106 c-158 -145 -293 -262 -302 -262 -4 0 -10 12 -14 28 -17
79 -119 446 -158 572 -25 79 -44 146 -42 148 3 3 508 -99 614 -123 21 -5 22
-2 22 45 0 27 -3 50 -6 50 -10 0 -637 120 -655 126 -10 3 -29 41 -49 97 -121
340 -327 794 -512 1128 l-42 77 76 173 c42 96 89 206 104 244 15 39 30 73 33
77 4 4 232 37 506 73 275 36 510 68 523 70 19 5 22 12 22 50 0 29 -4 45 -12
45 -7 0 -227 -32 -488 -70 -261 -39 -485 -70 -496 -70 -21 0 -21 3 17 105 156
424 296 993 384 1559 14 88 28 163 32 167 5 3 133 62 285 130 l278 124 0 57 0
57 -72 -33 c-40 -19 -165 -77 -277 -130 -113 -53 -205 -95 -206 -93 -1 1 4 53
11 115 37 319 64 820 64 1190 l0 222 -67 0 -68 0 -1 -423 c0 -232 -6 -503 -12
-602 -18 -260 -43 -538 -52 -554 -4 -7 -346 -172 -761 -366 l-754 -352 -7 241
c-12 466 -66 885 -174 1354 l-36 154 21 21 c11 12 141 135 289 272 l269 250
-64 3 -64 3 -235 -227 c-129 -125 -236 -225 -238 -223 -2 2 -14 38 -26 79 -12
41 -42 141 -67 223 l-46 147 -49 0 c-26 0 -48 -1 -48 -3 0 -2 16 -50 35 -108
33 -97 125 -400 125 -411 0 -5 -629 -613 -747 -721 l-51 -48 -18 48 c-129 354
-313 744 -476 1011 -21 34 -38 67 -38 74 0 9 33 68 78 136 14 22 14 22 -30 22
-41 0 -46 -3 -67 -40 -12 -22 -25 -40 -29 -40 -4 0 -18 18 -32 40 -23 37 -28
40 -68 40 -32 0 -41 -3 -36 -12 5 -7 27 -43 51 -80 l43 -66 -243 -406 c-133
-223 -244 -405 -247 -406 -3 0 -51 25 -105 55 -108 60 -269 140 -368 181 -48
21 -86 49 -173 134 -195 186 -442 385 -671 538 -86 58 -96 62 -149 62 l-57 0
129 -83 c156 -100 286 -193 419 -300 114 -92 305 -260 300 -265 -1 -2 -68 17
-146 42 -309 98 -677 164 -992 178 l-59 3 1 180 c1 99 4 195 7 213 l6 32 -103
0 -104 0 3 -215 3 -215 -76 0 c-96 0 -335 -25 -490 -51 -659 -111 -1297 -405
-1814 -836 -61 -51 -111 -90 -111 -88 0 3 37 78 81 168 181 361 426 724 701
1040 57 66 118 136 137 158 l34 39 -44 0 c-43 0 -46 -3 -119 -86 -351 -403
-655 -876 -850 -1324 -36 -82 -52 -106 -124 -180 -63 -64 -194 -211 -232 -258
-4 -6 -799 640 -802 652 -4 19 92 395 148 576 40 128 142 414 216 603 6 16 1
18 -41 15 l-48 -3 -44 -115 c-99 -262 -212 -635 -270 -895 -15 -69 -31 -125
-35 -125 -6 0 -1085 867 -1122 900 -8 8 8 179 20 223 5 15 -2 17 -54 17 -65 0
-71 -6 -73 -75 -2 -73 -8 -73 -101 4 l-87 71 -81 0 -82 0 148 -116z m7912
-291 c105 -185 233 -442 298 -598 54 -131 124 -317 124 -330 0 -7 -61 -69
-135 -139 l-135 -128 -118 112 c-144 139 -338 295 -497 402 -66 44 -121 82
-123 83 -2 2 101 171 228 376 128 204 234 378 237 386 3 7 8 13 13 13 4 0 52
-80 108 -177z m-7049 -385 l557 -437 -22 -123 c-73 -400 -106 -898 -85 -1277
7 -112 10 -205 8 -207 -3 -4 -995 351 -1003 359 -8 7 -42 280 -61 487 -22 240
-25 1026 -5 1260 24 290 35 381 44 378 5 -2 260 -200 567 -440z m4146 239
c-549 -287 -1007 -673 -1348 -1138 -47 -64 -96 -119 -125 -139 -26 -19 -79
-60 -118 -91 -55 -45 -97 -68 -190 -104 -65 -26 -193 -83 -284 -127 -105 -51
-169 -77 -177 -72 -61 43 -262 212 -262 221 -1 20 56 195 111 340 l50 132 76
69 c535 482 1178 797 1887 927 152 27 365 52 460 54 l60 1 -140 -73z m667 57
c324 -33 669 -114 960 -226 73 -28 82 -34 179 -141 110 -120 299 -352 299
-367 0 -4 -30 -58 -67 -120 -61 -102 -68 -111 -92 -106 -126 25 -509 50 -616
41 -61 -6 -85 -3 -190 28 -66 19 -136 38 -155 42 -19 4 -107 51 -195 104 -88
53 -218 123 -289 156 l-128 60 6 194 c3 107 6 229 6 273 l0 78 65 0 c36 0 133
-7 217 -16z m-452 -201 c0 -104 3 -272 7 -375 l6 -186 -79 -6 c-337 -26 -560
-68 -809 -151 -197 -66 -440 -177 -599 -274 -36 -22 -66 -38 -66 -34 0 20 218
272 355 408 221 222 441 395 712 562 116 72 440 242 461 243 9 0 12 -44 12
-187z m4019 -54 c109 -458 167 -891 178 -1326 l6 -253 -149 -71 c-122 -58
-152 -68 -169 -60 -11 6 -74 54 -140 107 -66 52 -179 135 -251 184 l-131 89
-17 93 c-24 131 -78 352 -121 492 -20 65 -35 125 -33 133 3 14 777 742 790
743 3 0 20 -59 37 -131z m-2016 -254 c18 -13 16 -18 -29 -94 -27 -45 -51 -81
-55 -81 -3 0 -21 21 -40 48 -44 61 -220 271 -247 296 -12 11 -22 23 -22 28 0
9 358 -170 393 -197z m237 -153 c142 -99 321 -246 450 -369 128 -123 125 -113
49 -174 l-38 -30 -113 44 c-120 48 -391 137 -414 137 -7 0 -25 17 -38 38 -13
20 -58 91 -101 156 -87 135 -86 117 -10 235 l46 72 37 -21 c20 -12 80 -52 132
-88z m-1909 8 c137 -69 282 -150 277 -156 -2 -2 -46 3 -97 11 -51 7 -129 16
-174 20 -45 3 -106 8 -134 11 l-53 5 0 42 c0 23 3 65 6 94 8 61 -6 63 175 -27z
m-3638 -469 c191 -149 347 -276 347 -281 0 -5 -10 -21 -23 -37 -162 -197 -393
-602 -507 -890 -24 -60 -47 -115 -51 -124 -7 -14 -25 -10 -146 33 -76 27 -141
53 -146 57 -14 14 -25 428 -16 648 11 289 55 670 101 886 l10 48 41 -34 c23
-18 198 -156 390 -306z m5322 214 c41 -62 75 -115 75 -117 0 -4 -107 18 -247
50 l-32 7 57 92 c31 50 60 89 64 87 5 -3 42 -56 83 -119z m-2005 77 c0 -26 -8
-31 -97 -71 -191 -84 -423 -221 -593 -351 l-75 -57 -205 -5 c-223 -6 -395 -28
-594 -77 -64 -16 -116 -27 -116 -24 0 2 15 25 32 52 34 51 132 118 318 219
358 194 874 334 1253 341 l77 1 0 -28z m341 18 c140 -14 338 -49 369 -66 14
-7 38 -24 54 -37 l30 -24 -60 -7 c-109 -13 -348 -65 -472 -102 -67 -20 -124
-35 -126 -33 -2 2 -1 66 1 142 l6 137 47 0 c26 0 94 -5 151 -10z m555 -113
c13 -13 -51 -7 -68 7 -10 7 -18 16 -18 19 0 6 76 -16 86 -26z m-893 -59 c4
-46 7 -169 7 -275 l0 -192 -42 15 c-128 45 -398 99 -608 121 l-74 8 70 52
c122 90 273 181 449 268 93 47 174 85 181 85 7 0 13 -31 17 -82z m3156 -25
c56 -185 138 -520 129 -529 -2 -1 -41 19 -87 46 -68 39 -95 63 -146 127 -34
43 -90 110 -124 148 l-61 70 122 117 c68 64 126 117 130 118 4 0 21 -44 37
-97z m-1861 -62 c152 -70 288 -145 285 -159 -1 -5 -36 -66 -78 -135 l-76 -126
-88 102 c-101 117 -250 262 -365 357 l-79 65 54 5 c66 7 158 -22 347 -109z
m277 93 c77 -9 142 -18 144 -20 2 -2 -22 -47 -53 -99 l-58 -96 -41 24 c-72 42
-299 153 -372 182 -38 15 -72 30 -75 33 -9 9 311 -8 455 -24z m-645 -61 c90
-70 381 -356 444 -435 l38 -47 -22 -36 c-25 -40 -21 -39 -155 -19 -55 8 -188
17 -295 20 -244 7 -286 18 -440 110 -63 38 -172 96 -242 129 l-128 60 0 67 0
66 78 26 c108 35 257 72 392 95 243 42 229 44 330 -36z m1024 -4 c79 -17 148
-34 154 -38 23 -15 211 -385 236 -466 5 -16 -7 -34 -53 -79 l-60 -59 -98 91
c-129 119 -257 222 -373 301 -52 35 -99 68 -104 72 -5 4 19 53 54 108 44 72
67 101 81 101 11 0 84 -14 163 -31z m318 -85 c86 -27 369 -133 378 -141 3 -3
-56 -63 -130 -134 l-135 -129 -19 42 c-11 24 -56 117 -100 208 -44 91 -82 168
-84 173 -5 10 -1 10 90 -19z m-4990 -174 c-30 -91 -56 -167 -58 -169 -1 -2
-28 17 -58 42 l-55 45 37 43 c62 75 185 210 187 207 2 -2 -22 -77 -53 -168z
m5656 1 c34 -39 62 -73 62 -74 0 -2 -57 24 -126 57 l-126 61 43 39 42 40 21
-26 c12 -14 49 -57 84 -97z m2828 67 c-3 -18 -15 -98 -26 -178 -48 -332 -134
-731 -227 -1055 -45 -159 -159 -514 -167 -523 -8 -7 -472 -70 -477 -64 -3 4
-51 68 -106 142 -133 178 -289 363 -424 504 l-110 114 10 114 c6 62 13 156 16
209 l7 95 746 337 c411 185 751 336 755 337 4 0 6 -15 3 -32z m-4039 -78 c116
-78 253 -188 375 -301 l100 -92 -58 -58 c-32 -33 -63 -59 -69 -59 -5 0 -52 18
-104 40 -95 41 -279 106 -383 134 -49 14 -61 23 -92 66 -20 28 -36 54 -36 59
0 14 162 271 171 271 4 0 47 -27 96 -60z m-1452 -45 c61 -29 142 -71 180 -94
66 -40 68 -42 32 -36 -109 18 -259 35 -311 35 l-59 0 7 53 c3 28 6 64 6 79 0
33 -5 34 145 -37z m2721 -78 c91 -47 92 -49 166 -155 41 -59 98 -145 127 -192
56 -93 58 -106 76 -350 l6 -86 -214 -100 -214 -100 -84 73 c-46 41 -132 111
-190 155 l-107 82 -32 125 c-18 69 -54 188 -80 264 l-48 137 155 144 154 144
97 -46 c53 -26 138 -69 188 -95z m-3965 -64 c-90 -90 -195 -208 -245 -275
-107 -143 -160 -184 -308 -244 -61 -24 -169 -74 -239 -110 l-128 -66 -55 44
c-30 23 -55 49 -55 57 -3 60 250 599 293 625 32 20 267 74 418 96 174 25 190
26 344 28 l132 2 -157 -157z m519 131 c101 -14 364 -73 358 -79 -2 -2 -59 -11
-127 -19 -170 -23 -292 -50 -452 -103 -137 -44 -370 -151 -470 -215 -76 -48
-79 -50 -79 -44 0 2 28 40 62 83 78 98 230 256 328 341 l75 64 100 -6 c55 -4
147 -13 205 -22z m-1270 -44 c-10 -18 -48 -41 -68 -40 -9 1 61 59 71 60 4 0 3
-9 -3 -20z m-1133 -71 c38 -31 62 -57 59 -65 -9 -24 -74 -327 -86 -401 l-12
-72 -71 -57 c-122 -97 -217 -182 -347 -311 l-126 -123 -34 11 c-19 7 -36 13
-37 14 -6 4 96 245 161 380 73 152 192 357 274 475 78 111 144 200 149 200 3
0 34 -23 70 -51z m2867 -20 c11 -54 7 -59 -51 -85 -119 -52 -261 -128 -356
-190 l-98 -65 -182 -3 c-192 -4 -333 -21 -506 -62 -57 -13 -106 -23 -107 -21
-17 17 163 135 331 217 289 141 595 219 931 238 28 2 32 -2 38 -29z m331 10
c112 -13 235 -39 265 -54 l25 -13 -35 -6 c-186 -28 -394 -74 -462 -101 -16 -7
-18 2 -18 95 l0 101 73 -6 c39 -4 108 -11 152 -16z m-2189 -140 c-41 -79 -95
-198 -121 -264 -25 -66 -52 -133 -58 -148 l-13 -29 -108 87 -108 87 24 27 c13
14 61 67 107 118 126 141 234 234 294 254 29 10 53 16 54 15 2 -2 -30 -68 -71
-147z m5136 22 c9 -9 19 -41 23 -71 l7 -55 -57 85 c-31 47 -59 89 -62 94 -9
13 68 -33 89 -53z m-5324 2 c-28 -27 -93 -96 -146 -155 -52 -60 -97 -108 -101
-108 -3 0 -37 25 -74 55 l-69 54 114 57 c136 69 298 143 315 143 7 1 -11 -20
-39 -46z m3493 25 c26 -32 24 -39 -8 -32 -41 10 -44 13 -33 35 14 24 18 24 41
-3z m-4079 -83 c64 -49 117 -92 117 -95 1 -3 -19 -16 -44 -29 -25 -13 -101
-61 -168 -107 -67 -45 -123 -81 -125 -80 -6 7 64 338 83 394 7 18 5 19 137
-83z m3476 49 c105 -38 355 -158 371 -177 7 -9 -5 -36 -39 -92 -27 -44 -51
-84 -54 -90 -2 -5 -30 19 -62 55 -101 114 -241 245 -339 317 l-30 22 28 1 c15
0 72 -16 125 -36z m307 21 c72 -9 142 -19 157 -23 l26 -7 -45 -76 -46 -76
-116 61 c-64 33 -156 77 -206 98 l-90 37 95 1 c52 0 154 -7 225 -15z m-378
-84 c114 -93 323 -305 323 -328 0 -8 -15 -38 -34 -67 l-33 -52 -64 9 c-35 5
-109 29 -164 52 -55 24 -144 57 -197 74 -85 27 -147 40 -363 80 -27 5 -71 19
-97 31 -47 21 -48 21 -48 68 0 26 3 63 6 84 l6 36 117 31 c141 37 317 69 388
70 51 1 54 -1 160 -88z m-767 -70 c0 -127 -2 -150 -16 -155 -31 -12 -111 -6
-229 18 -66 13 -147 27 -179 31 l-60 7 85 55 c95 61 355 193 382 193 15 0 17
-14 17 -149z m2398 9 c42 -122 83 -260 77 -260 -2 0 -33 38 -69 84 -35 45 -88
109 -117 140 l-52 57 54 55 c29 29 56 51 60 46 4 -4 25 -59 47 -122z m-937 90
c32 -9 45 -22 87 -88 63 -98 141 -239 177 -320 27 -60 27 -63 10 -82 -18 -19
-19 -19 -91 50 -87 83 -201 174 -301 241 -40 27 -73 52 -73 56 0 3 21 41 48
85 52 87 45 84 143 58z m2045 -116 c136 -99 294 -224 294 -234 0 -7 -260 -130
-275 -130 -5 0 -42 64 -82 143 -57 113 -74 157 -83 214 -15 105 -14 116 9 104
10 -6 72 -49 137 -97z m-1812 49 c107 -34 314 -117 328 -131 4 -4 -49 -61
-118 -126 -69 -65 -127 -116 -129 -114 -3 3 -27 49 -54 104 -27 54 -78 148
-114 207 -54 89 -62 107 -44 101 12 -3 71 -22 131 -41z m558 -69 c53 -58 186
-222 200 -249 10 -18 10 -19 -13 -4 -62 41 -162 100 -246 145 l-92 49 52 53
c28 28 53 52 54 52 1 0 22 -21 45 -46z m-4657 -61 c41 -32 74 -62 75 -66 0 -4
-24 -40 -54 -80 -123 -163 -260 -405 -345 -612 -23 -55 -46 -110 -51 -122 l-9
-22 -62 21 -62 21 7 216 c3 119 10 252 16 296 19 161 12 147 111 217 103 73
280 187 292 188 4 0 41 -26 82 -57z m3752 -35 c86 -57 228 -175 295 -245 l48
-49 -64 -63 -64 -63 -138 55 c-77 30 -146 57 -155 60 -8 3 -43 43 -77 90 l-62
85 51 84 c29 46 56 89 61 95 12 14 8 16 105 -49z m-1930 12 l35 0 -54 -42
c-29 -23 -90 -78 -135 -121 -48 -46 -119 -101 -172 -132 -129 -76 -230 -155
-356 -275 -60 -58 -122 -114 -137 -123 -27 -17 -27 -16 -95 39 -37 31 -70 60
-72 66 -12 33 182 439 230 480 21 18 228 70 354 89 97 14 299 28 339 23 16 -2
44 -4 63 -4z m178 -10 c96 -13 197 -32 193 -36 -2 -1 -50 -12 -108 -24 -115
-23 -287 -77 -377 -116 -57 -25 -57 -25 -38 -4 45 51 221 190 240 190 11 0 52
-5 90 -10z m2801 -175 c129 -85 117 -59 154 -318 33 -223 48 -196 -170 -298
l-185 -86 -60 55 c-36 34 -85 95 -123 156 -35 56 -82 125 -104 155 -23 30 -56
93 -74 140 -17 47 -35 93 -38 102 -5 11 32 52 135 148 l141 132 106 -57 c59
-31 157 -89 218 -129z m-2271 155 c3 -5 -1 -10 -9 -10 -8 0 -18 5 -21 10 -3 6
1 10 9 10 8 0 18 -4 21 -10z m4041 -142 c-4 -73 -9 -146 -12 -162 l-6 -28 -67
64 c-36 35 -87 83 -114 106 l-47 43 87 39 c49 22 102 47 118 54 17 8 34 15 39
15 5 1 6 -57 2 -131z m-4168 97 c-2 -2 -15 -1 -28 2 l-25 7 25 6 c22 6 39 -4
28 -15z m-67 -6 c88 -27 91 -45 11 -77 -94 -38 -250 -131 -357 -212 l-101 -77
-109 -6 c-99 -6 -310 -43 -359 -63 -24 -9 39 85 125 189 53 63 71 77 142 109
147 68 366 130 532 151 17 2 34 5 38 6 5 0 40 -8 78 -20z m357 -25 c46 -25
109 -62 139 -82 64 -42 65 -41 -71 -62 -43 -6 -124 -24 -179 -40 l-100 -28 7
61 c3 33 6 91 6 128 l0 69 57 0 c48 0 69 -7 141 -46z m-2467 -50 c60 -47 109
-91 108 -97 0 -7 -12 -58 -27 -113 l-27 -102 -95 -73 c-52 -40 -167 -145 -256
-233 l-161 -161 -56 20 c-32 11 -57 24 -57 29 0 4 16 50 36 100 61 154 184
384 289 540 122 181 118 176 128 176 5 0 58 -39 118 -86z m2609 59 c83 -16
290 -82 344 -110 l35 -18 -148 1 -149 2 -73 49 c-41 28 -93 60 -116 72 -73 37
-61 37 107 4z m-1820 -27 c0 -2 -29 -59 -64 -127 -36 -68 -81 -167 -101 -219
-21 -52 -39 -97 -40 -98 -5 -6 -145 109 -145 118 0 13 230 250 283 292 43 34
67 46 67 34z m4820 -76 c22 -45 38 -85 36 -89 -7 -10 -65 -35 -70 -30 -4 4
-12 199 -9 199 2 0 21 -36 43 -80z m-5002 -29 c-40 -38 -100 -100 -133 -139
l-59 -70 -51 41 c-27 22 -54 44 -58 48 -5 4 27 26 70 50 75 42 280 138 296
139 4 0 -26 -31 -65 -69z m1582 -75 l0 -143 -122 -13 c-93 -9 -142 -9 -201 -1
-43 6 -99 11 -125 11 l-47 1 35 29 c99 85 400 260 446 260 11 0 14 -30 14
-144z m1157 72 c24 -34 42 -63 40 -64 -2 -3 -139 28 -146 32 -5 4 49 94 57 94
4 0 26 -28 49 -62z m2838 -77 c131 -120 135 -125 135 -165 0 -100 -77 -533
-133 -751 -26 -99 -17 -91 -128 -108 l-37 -5 -22 121 c-48 260 -133 553 -227
777 -24 58 -45 109 -46 114 -2 10 292 146 311 143 7 -1 73 -58 147 -126z
m-8424 -60 l494 -169 27 -185 c14 -102 35 -230 46 -283 l20 -97 -88 -132 c-49
-73 -128 -200 -176 -284 l-87 -151 -42 0 c-23 0 -97 3 -164 7 l-123 6 -19 44
c-131 306 -275 788 -349 1168 -17 88 -35 179 -39 203 -5 23 -5 42 -1 42 4 0
229 -76 501 -169z m1495 112 c-13 -81 -26 -302 -26 -431 0 -103 -3 -133 -12
-130 -7 3 -105 38 -218 78 -113 40 -208 76 -212 79 -15 14 435 440 465 441 5
0 6 -17 3 -37z m3842 -21 c30 -15 57 -32 59 -39 4 -9 -101 -199 -122 -221 -2
-2 -56 50 -119 116 -64 66 -132 131 -151 143 -19 13 -35 28 -35 33 0 5 65 6
157 2 144 -6 161 -9 211 -34z m-308 -48 c50 -42 122 -113 160 -156 69 -79 69
-81 55 -109 -14 -27 -17 -28 -68 -22 -28 3 -100 26 -159 50 -59 24 -156 55
-215 69 -128 31 -301 109 -302 137 -1 10 10 22 24 27 75 29 308 77 377 79 32
1 49 -9 128 -75z m-2588 13 l38 -30 -65 -44 c-35 -23 -67 -43 -70 -43 -9 0 -6
21 16 92 22 74 20 74 81 25z m2983 34 c10 -17 -11 -21 -31 -6 -18 14 -18 14 3
15 12 0 24 -4 28 -9z m156 -33 l76 -19 35 -62 c41 -70 98 -183 98 -193 0 -3
-30 22 -68 57 -58 56 -181 153 -253 200 -14 10 -20 21 -16 31 6 18 6 18 128
-14z m-2079 -55 c-32 -43 -70 -96 -84 -119 -22 -33 -37 -45 -90 -63 -34 -13
-97 -39 -138 -58 l-75 -34 60 61 c73 75 192 170 300 239 44 28 81 51 83 51 2
0 -24 -35 -56 -77z m2712 18 c15 -40 15 -43 1 -31 -9 7 -25 26 -37 43 -17 24
-18 31 -7 38 17 10 22 5 43 -50z m-609 -107 c44 -34 102 -85 130 -113 l50 -51
-67 -66 -66 -66 -103 40 c-57 22 -129 47 -159 56 -43 12 -60 23 -77 51 -13 19
-23 37 -23 39 0 3 32 57 71 120 l71 116 46 -32 c26 -17 83 -59 127 -94z m632
10 c20 -27 68 -162 60 -170 -1 -2 -36 19 -77 45 -41 26 -105 64 -142 84 l-66
37 61 60 62 60 39 -42 c21 -24 49 -57 63 -74z m868 -105 l43 -86 -54 -26 c-31
-15 -59 -25 -65 -22 -5 4 -9 25 -9 48 0 38 -22 208 -36 282 -6 36 54 -61 121
-196z m-6 164 c31 -26 89 -76 130 -112 l73 -65 -53 -27 c-30 -16 -57 -28 -61
-29 -4 0 -30 44 -57 98 -28 53 -62 116 -76 140 -14 23 -23 42 -19 42 4 0 32
-21 63 -47z m851 -29 c86 -207 137 -362 189 -569 25 -99 71 -330 71 -355 0 -4
-46 -13 -101 -20 -87 -12 -102 -12 -109 1 -11 19 -148 223 -188 279 l-32 45
15 140 c8 77 18 224 21 326 l7 187 41 20 c23 11 44 21 48 21 3 1 20 -33 38
-75z m-2133 25 c39 -15 88 -36 108 -47 l37 -18 -67 -62 c-38 -34 -71 -62 -74
-62 -5 0 -102 182 -120 223 -4 11 23 3 116 -34z m-3250 -20 c29 -23 56 -46 59
-50 2 -4 -16 -36 -41 -70 -103 -140 -207 -327 -275 -496 -55 -135 -65 -114
-51 98 11 149 29 289 52 395 11 48 15 52 96 107 46 31 89 57 95 57 6 0 35 -19
65 -41z m2013 -20 l55 -30 -49 6 c-27 3 -57 5 -67 5 -14 0 -19 7 -19 25 0 32
12 31 80 -6z m3190 -99 c0 -134 -19 -419 -29 -437 -4 -7 -32 20 -73 71 -37 45
-117 135 -178 199 l-112 117 33 14 c19 8 104 46 189 85 85 38 158 70 163 71 4
0 7 -54 7 -120z m-3951 -7 c-36 -38 -74 -79 -84 -93 -11 -14 -56 -50 -100 -80
-43 -30 -122 -96 -175 -146 -125 -119 -132 -123 -176 -89 -20 15 -38 33 -40
40 -10 24 109 290 152 342 31 38 270 90 418 92 l69 1 -64 -67z m286 58 l40 -7
-55 -13 c-68 -16 -208 -69 -280 -106 l-54 -27 53 61 c84 97 92 101 180 100 42
0 94 -4 116 -8z m325 -27 c0 -31 -3 -35 -17 -29 -10 5 -52 17 -93 29 -72 20
-74 21 -40 27 19 4 61 7 93 8 l57 1 0 -36z m263 15 c50 -26 148 -102 140 -109
-4 -4 -42 -12 -83 -18 -41 -6 -115 -23 -164 -37 -49 -14 -90 -24 -92 -22 -2 2
-1 50 3 106 l6 104 84 -7 c47 -3 95 -11 106 -17z m1367 -15 c37 -19 110 -63
161 -98 80 -53 94 -67 101 -97 8 -36 34 -199 42 -262 l5 -39 -105 -49 c-58
-27 -108 -49 -112 -49 -4 0 -22 28 -39 63 -47 89 -139 229 -216 325 -37 46
-67 87 -67 90 0 6 151 151 159 152 1 0 34 -16 71 -36z m-3317 -43 c37 -29 67
-58 67 -63 0 -6 -9 -41 -19 -77 -11 -36 -25 -92 -32 -125 -12 -57 -16 -62
-163 -208 l-151 -149 -65 22 c-36 12 -68 25 -72 28 -14 13 108 278 193 418 74
122 151 223 163 214 6 -4 41 -32 79 -60z m1587 22 c47 -13 88 -27 92 -31 3 -4
9 -46 13 -93 l7 -86 -83 -6 c-46 -4 -121 -16 -167 -27 -60 -14 -118 -20 -205
-20 -113 0 -244 -16 -326 -40 -19 -5 -37 -8 -39 -5 -3 2 19 40 47 84 49 74 58
83 131 121 143 74 359 144 415 133 17 -3 68 -16 115 -30z m588 -19 c148 -49
152 -53 50 -54 l-88 0 -62 46 c-35 25 -65 48 -68 51 -10 10 66 -9 168 -43z
m3995 -288 c131 -159 278 -358 271 -365 -4 -4 -717 -110 -721 -107 -1 1 4 22
11 47 43 141 110 475 141 704 l7 50 85 -90 c47 -49 139 -157 206 -239z m-6647
218 c-23 -135 -36 -273 -36 -379 0 -52 -3 -95 -8 -95 -21 0 -386 137 -389 146
-8 24 428 436 444 420 2 -2 -3 -44 -11 -92z m4128 -46 l38 -62 -48 36 c-27 20
-51 47 -55 59 -3 13 -9 38 -12 54 l-7 30 22 -27 c13 -15 40 -55 62 -90z
m-5580 11 c5 -4 -7 -58 -26 -121 -30 -97 -43 -124 -94 -190 -36 -47 -61 -73
-65 -65 -10 18 -69 408 -69 452 0 10 33 3 123 -27 67 -22 126 -44 131 -49z
m2506 -7 c-27 -54 -59 -125 -71 -158 -12 -32 -24 -62 -28 -66 -4 -4 -48 26
-99 68 l-92 75 18 24 c22 31 267 151 314 155 4 0 -14 -44 -42 -98z m1990 27
c0 -5 -7 -6 -15 -4 -49 16 -48 15 -35 30 11 14 15 14 31 -1 11 -10 19 -21 19
-25z m2157 -100 c58 -63 141 -159 185 -213 l80 -99 -6 -56 c-4 -31 -19 -117
-34 -191 l-27 -135 -80 -12 c-44 -6 -96 -14 -116 -17 l-37 -6 -7 48 c-25 175
-124 520 -194 676 -17 38 -29 71 -26 74 17 17 131 59 143 53 7 -4 61 -59 119
-122z m-2325 90 c20 -10 39 -23 43 -29 5 -9 -68 -145 -84 -155 -4 -2 -27 21
-50 50 -24 30 -67 77 -96 104 -52 49 -52 50 -26 53 56 8 177 -5 213 -23z
m-195 -46 c38 -38 86 -89 107 -115 37 -46 37 -47 20 -73 -9 -14 -20 -24 -23
-23 -3 2 -44 22 -91 44 -131 64 -320 114 -431 114 -32 0 -39 4 -39 20 0 22 76
50 225 80 151 31 153 30 232 -47z m-2042 11 c31 -26 53 -50 48 -54 -17 -14
-173 -120 -177 -120 -4 0 31 140 50 203 8 25 16 22 79 -29z m2305 36 c0 -5 -6
-10 -14 -10 -8 0 -18 5 -21 10 -3 6 3 10 14 10 12 0 21 -4 21 -10z m115 -25
c11 -7 36 -41 55 -76 27 -52 30 -61 13 -49 -11 8 -54 39 -96 69 -61 44 -74 57
-65 68 13 16 60 9 93 -12z m540 -108 c19 -60 35 -112 35 -116 0 -5 -48 20
-106 55 -59 35 -112 64 -118 64 -6 0 21 29 59 65 54 49 73 61 82 52 7 -7 28
-61 48 -120z m-4946 87 c2 -2 -14 -23 -35 -48 -22 -24 -41 -43 -43 -41 -1 2 5
27 14 55 15 45 20 50 38 44 12 -4 24 -8 26 -10z m4553 -18 c134 -49 159 -60
156 -67 -2 -3 -31 -32 -66 -64 l-63 -58 -23 24 c-28 29 -118 199 -106 199 5 0
51 -15 102 -34z m1745 -92 c75 -186 160 -496 175 -639 l3 -30 -115 -17 c-63
-9 -133 -19 -156 -23 l-41 -6 -41 72 -42 71 15 126 c8 70 15 212 15 315 l0
188 63 29 c34 16 66 28 71 26 5 -1 29 -51 53 -112z m-1921 56 c96 -69 139
-109 159 -149 l17 -34 -61 -60 -60 -61 -76 25 c-75 26 -76 26 -120 98 l-44 72
41 67 c46 77 58 92 68 92 4 0 38 -22 76 -50z m-3827 -134 c4 -3 11 -54 15
-113 3 -59 13 -152 21 -206 l15 -99 -65 -109 c-36 -60 -90 -159 -120 -220
l-56 -111 -62 6 c-34 3 -129 8 -212 11 -82 3 -160 8 -172 11 -19 3 -29 26 -68
145 -25 78 -48 158 -51 178 -6 40 23 219 61 375 24 95 27 101 97 183 40 47 79
93 86 104 13 17 26 14 258 -66 134 -46 248 -86 253 -89z m2163 98 c-46 -74
-48 -76 -121 -104 -41 -16 -76 -28 -78 -26 -8 8 226 204 244 206 1 0 -19 -34
-45 -76z m2791 23 c42 -34 107 -135 107 -165 0 -8 -130 -76 -135 -70 -1 2 -10
55 -19 118 -9 63 -20 128 -23 144 -7 34 -2 32 70 -27z m-438 -112 c29 -44 68
-107 86 -140 l34 -60 -67 57 c-37 31 -76 63 -87 70 -13 9 -30 45 -45 99 -14
46 -27 93 -31 104 -10 31 49 -39 110 -130z m-2995 121 c0 -2 -34 -55 -76 -117
-42 -63 -98 -160 -126 -216 -27 -57 -51 -103 -52 -103 -4 0 1 68 16 187 12
105 10 102 140 193 76 54 98 67 98 56z m1448 -73 l3 -61 -53 20 c-29 11 -93
30 -143 43 l-90 22 60 13 c69 15 171 28 200 26 17 -1 20 -9 23 -63z m245 40
c101 -19 193 -51 290 -99 70 -36 76 -41 65 -57 -11 -15 -34 -18 -158 -21 -151
-4 -248 -22 -347 -66 -25 -11 -47 -19 -48 -18 -1 2 0 67 3 145 l5 143 56 -6
c31 -3 91 -12 134 -21z m-1504 -114 l33 -26 -18 -73 c-17 -63 -24 -76 -59
-103 -22 -17 -88 -78 -146 -134 l-106 -104 -69 26 c-38 14 -72 29 -77 34 -22
22 148 351 245 473 l30 38 67 -53 c36 -28 82 -64 100 -78z m3817 -101 c-7
-242 -13 -328 -25 -328 -3 0 -26 31 -51 67 -54 81 -149 199 -224 280 l-55 60
167 76 c92 41 173 76 181 76 12 1 13 -36 7 -231z m-1220 146 c138 -82 138 -82
157 -206 10 -59 17 -115 17 -125 0 -14 -25 -31 -90 -63 -49 -24 -91 -42 -94
-39 -2 2 -16 29 -31 59 -39 79 -103 175 -165 249 l-53 64 69 63 c40 37 75 61
83 58 8 -3 56 -30 107 -60z m-1721 38 c-6 -5 -33 -18 -62 -29 -124 -50 -317
-190 -391 -282 -38 -48 -50 -50 -81 -17 -23 24 -23 25 -6 78 10 29 33 85 51
125 l32 71 93 22 c52 11 123 25 159 29 88 11 216 13 205 3z m212 -28 c32 -8
83 -24 114 -35 l56 -20 5 -157 c3 -86 4 -159 2 -161 -2 -2 -10 1 -17 7 -49 41
-253 92 -367 92 -120 0 -310 -43 -406 -93 -29 -15 -32 -14 -58 6 l-28 22 76
77 c112 114 270 218 416 274 40 16 118 11 207 -12z m2313 -66 c0 -19 -21 -5
-36 25 l-17 32 27 -24 c14 -14 26 -28 26 -33z m-1461 10 c8 -13 23 -38 34 -57
l20 -33 -51 36 c-46 33 -50 40 -39 57 15 24 19 24 36 -3z m-1552 0 c-30 -66
-77 -186 -77 -195 0 -21 -12 -15 -78 39 l-63 51 24 25 c25 24 158 90 186 91 7
1 11 -5 8 -11z m-1995 -13 l45 -16 -34 -110 c-18 -61 -33 -118 -34 -127 -1
-49 -18 38 -24 125 -3 54 -8 108 -11 121 -5 26 -1 27 58 7z m1157 -80 c-4 -33
-11 -108 -15 -167 -4 -60 -10 -108 -13 -108 -19 -1 -221 76 -221 83 0 11 249
262 254 256 2 -2 0 -31 -5 -64z m2876 -60 c78 -103 151 -233 138 -246 -8 -8
-30 5 -76 44 -36 31 -74 60 -85 66 -13 7 -25 30 -32 63 -7 29 -23 83 -36 120
-37 109 -22 102 91 -47z m-2316 64 c1 -8 -80 -62 -85 -57 -3 4 9 60 22 96 3
10 12 8 33 -10 17 -13 30 -26 30 -29z m1816 27 l30 -25 -40 9 c-22 5 -44 10
-49 10 -9 0 13 30 23 30 3 0 20 -11 36 -24z m1575 -43 c75 -81 181 -217 243
-311 l46 -67 -15 -74 c-7 -41 -16 -76 -19 -79 -9 -9 -170 -30 -176 -23 -3 3
-14 49 -24 101 -21 114 -74 293 -121 413 -52 131 -30 144 66 40z m-4967 41
l46 -16 -42 -51 c-23 -29 -64 -82 -91 -119 -27 -37 -51 -66 -53 -65 -3 4 66
247 73 259 7 11 14 10 67 -8z m3802 -98 c14 -49 24 -90 23 -92 -2 -1 -36 18
-77 42 -41 24 -80 46 -85 48 -6 3 14 27 44 55 30 28 58 47 62 43 4 -4 18 -47
33 -96z m534 7 l75 -69 -75 -36 c-41 -19 -75 -35 -76 -34 -1 1 -6 37 -12 81
-6 44 -14 95 -17 114 -6 30 -5 32 12 23 11 -6 52 -41 93 -79z m531 30 c86
-221 165 -528 140 -543 -6 -4 -54 -12 -107 -19 -111 -15 -98 -23 -170 99 l-50
85 4 184 c1 101 5 186 8 189 9 9 129 61 141 62 6 0 21 -26 34 -57z m-1570 41
c0 -4 -30 -56 -66 -115 l-66 -109 -68 0 c-79 0 -198 -28 -269 -64 -28 -14 -53
-26 -56 -26 -3 0 -5 52 -5 116 l0 115 53 23 c45 20 132 45 202 60 33 6 275 6
275 0z m-2784 -154 c12 0 1 -138 -16 -206 -11 -43 -27 -121 -36 -174 -10 -61
-29 -125 -52 -178 l-37 -83 -135 7 c-74 3 -169 9 -210 13 l-74 6 -28 95 c-15
52 -39 152 -54 221 l-27 126 43 64 c24 35 77 108 117 161 l74 97 216 -75 c118
-40 217 -74 219 -74z m2909 137 c47 -12 52 -17 77 -67 15 -30 27 -62 27 -70 1
-9 -23 -39 -52 -68 l-52 -51 -43 14 c-24 9 -75 21 -115 27 -40 7 -74 13 -76
14 -4 3 17 37 86 147 48 75 55 77 148 54z m-1821 -19 c-4 -7 -18 -27 -31 -44
-13 -18 -44 -67 -68 -110 -49 -85 -54 -80 -34 33 11 62 12 63 67 98 59 37 78
43 66 23z m-2617 -118 l-21 -105 -12 40 c-19 62 -16 83 18 131 17 24 32 43 34
41 1 -1 -7 -49 -19 -107z m2718 55 c43 -34 62 -55 59 -65 -3 -8 -13 -55 -23
-105 l-16 -90 -71 -67 c-39 -38 -76 -68 -82 -68 -6 0 -36 9 -67 21 l-55 20 0
68 c0 62 4 73 51 156 61 107 118 187 130 183 5 -2 38 -25 74 -53z m1873 36
c41 -16 42 -18 25 -33 -17 -15 -21 -14 -57 18 -43 37 -34 42 32 15z m1085 -93
c4 -51 3 -124 -1 -162 l-7 -70 -44 60 c-25 32 -70 86 -100 118 -31 32 -51 61
-46 63 6 2 48 21 95 43 47 21 88 39 91 40 4 0 9 -42 12 -92z m-1097 23 c-12
-19 -24 -12 -35 20 -16 45 -14 47 15 17 15 -14 23 -31 20 -37z m164 -2 c41
-22 82 -47 91 -55 10 -9 21 -45 28 -90 17 -112 15 -120 -19 -134 -36 -15 -31
-18 -60 40 -28 56 -85 141 -134 199 -35 41 -36 45 -20 62 10 11 22 19 28 19 6
0 45 -19 86 -41z m-2274 -5 c-4 -10 -9 -51 -13 -93 -3 -43 -16 -102 -30 -137
l-24 -62 -52 19 c-29 11 -71 27 -94 35 l-43 16 38 45 c39 49 201 193 215 193
5 0 6 -7 3 -16z m4744 -187 c23 -37 39 -71 35 -75 -6 -7 -227 -42 -233 -37 -2
2 8 56 21 121 14 66 28 136 32 157 l6 38 48 -68 c26 -37 67 -99 91 -136z
m-3658 153 c42 -10 103 -31 135 -47 l58 -28 3 -112 c1 -62 0 -113 -2 -113 -3
0 -25 14 -50 30 -86 58 -147 74 -291 74 -110 1 -140 -3 -199 -22 l-69 -23 -41
32 c-112 89 -155 125 -155 130 -1 3 28 17 63 32 181 74 368 90 548 47z m1186
-157 c29 -48 52 -92 52 -99 0 -19 -43 -25 -65 -9 -11 9 -41 30 -66 47 -46 32
-47 35 -71 131 -21 87 -22 99 -9 108 22 13 93 -66 159 -178z m-1906 140 c15
-14 14 -19 -19 -66 -53 -76 -56 -78 -49 -27 17 117 26 128 68 93z m2624 -10
c48 -113 124 -379 124 -437 0 -10 -31 -18 -112 -30 -62 -9 -122 -18 -133 -21
-15 -3 -27 7 -46 39 l-26 43 5 185 5 184 81 37 c44 20 82 37 83 37 2 0 10 -17
19 -37z m-3743 -22 c4 -4 -14 -38 -41 -74 -27 -36 -58 -79 -68 -96 -10 -17
-21 -31 -25 -31 -4 0 -10 34 -14 75 -5 57 -3 86 10 124 l16 50 57 -20 c31 -11
60 -23 65 -28z m2861 -37 c9 -34 16 -67 16 -72 0 -6 -31 3 -69 21 l-69 32 46
47 c25 27 49 45 53 40 4 -4 15 -35 23 -68z m-4633 -244 c-6 -69 -11 -144 -11
-167 l0 -43 -53 0 c-109 0 -267 13 -267 22 0 15 154 281 228 393 l65 100 24
-90 c24 -86 25 -95 14 -215z m5670 151 c54 -70 58 -89 38 -197 -14 -82 -18
-94 -33 -94 -8 0 -21 40 -35 107 -19 89 -50 194 -95 318 -10 26 62 -51 125
-134z m-2727 120 c16 -18 15 -20 -35 -50 -28 -18 -53 -31 -54 -29 -4 3 63 98
69 98 1 0 11 -8 20 -19z m2110 -108 c-21 -15 -103 -47 -108 -42 -2 2 -6 41
-10 87 l-7 83 72 -57 c64 -52 69 -59 53 -71z m3992 45 c-35 -93 -127 -312
-136 -321 -4 -5 -34 34 -66 85 -32 51 -80 126 -106 165 -27 40 -49 76 -49 80
0 7 370 63 379 57 1 -1 -8 -31 -22 -66z m-7100 18 l111 -37 -27 -97 c-28 -98
-53 -234 -65 -348 l-7 -61 -116 5 c-64 2 -120 7 -123 11 -9 9 -45 152 -63 249
l-16 83 42 62 c73 108 130 178 142 174 6 -2 61 -21 122 -41z m2272 22 c-8 -13
-31 -51 -52 -85 -32 -54 -42 -63 -66 -63 -48 0 -156 -39 -210 -75 -29 -19 -54
-35 -57 -35 -3 0 -3 39 -2 86 5 100 11 108 124 149 85 31 142 42 219 44 58 1
58 1 44 -21z m192 -6 c34 -9 62 -19 62 -22 1 -3 -30 -35 -68 -72 -69 -67 -70
-67 -109 -58 -22 5 -64 10 -92 10 -29 0 -53 3 -53 7 0 4 21 42 48 86 l47 78
52 -6 c29 -3 80 -14 113 -23z m905 -22 c7 -34 -4 -248 -14 -267 -4 -7 -31 20
-68 68 -64 81 -99 147 -86 160 9 8 144 68 155 69 3 0 9 -14 13 -30z m-2261
-35 c39 -30 84 -65 100 -78 l29 -24 -74 -41 c-41 -22 -99 -61 -129 -87 -59
-49 -66 -50 -137 -20 l-33 14 0 88 c0 48 4 93 8 99 9 14 143 103 156 104 5 0
41 -25 80 -55z m1534 -10 l72 -34 0 -43 c0 -24 3 -59 6 -78 5 -33 3 -37 -30
-53 l-36 -17 -59 39 c-33 21 -86 49 -118 61 -32 13 -60 25 -62 27 -9 7 123
133 139 133 9 0 48 -16 88 -35z m4064 -42 c78 -116 208 -335 208 -351 0 -20
-136 -285 -240 -467 -79 -138 -302 -482 -358 -554 l-19 -24 -172 33 -171 32
-11 42 c-56 217 -119 409 -190 587 -34 88 -39 109 -39 183 0 72 5 97 39 187
21 57 54 150 72 207 18 56 38 102 44 103 5 0 170 22 365 48 195 27 369 49 387
50 30 1 37 -6 85 -76z m-6481 16 l57 -21 -56 -77 c-54 -72 -57 -75 -63 -51
-14 51 -18 170 -7 170 6 0 37 -9 69 -21z m2959 0 c0 -6 -4 -7 -10 -4 -5 3 -10
11 -10 16 0 6 5 7 10 4 6 -3 10 -11 10 -16z m-3 -31 c21 -22 40 -60 56 -113
27 -86 52 -203 46 -210 -3 -2 -44 -10 -93 -17 l-89 -12 -21 28 c-12 16 -36 49
-54 73 l-33 45 7 92 6 93 57 25 c74 34 82 34 118 -4z m-3518 -56 c1 -27 -41
-122 -54 -122 -2 0 1 17 5 38 4 20 14 66 21 102 11 53 14 61 20 40 4 -14 7
-40 8 -58z m475 -45 c4 -53 3 -93 -2 -100 -6 -7 -28 -46 -51 -87 -32 -58 -41
-69 -41 -49 0 40 28 195 52 283 25 93 32 85 42 -47z m1564 83 c35 -12 84 -36
110 -54 l47 -31 5 -88 c3 -48 5 -87 4 -87 -1 0 -19 17 -40 37 -82 77 -212 113
-341 94 l-75 -11 -70 56 c-38 31 -71 54 -74 51 -2 -2 20 -23 50 -46 86 -66 86
-66 16 -97 -33 -15 -81 -42 -106 -59 l-45 -32 -90 32 c-50 18 -93 35 -95 38
-7 7 134 111 183 136 68 34 144 62 208 77 84 19 232 12 313 -16z m1115 -37
l28 -22 -52 -26 c-28 -15 -52 -25 -54 -23 -1 2 -5 33 -8 70 l-5 68 32 -22 c17
-12 44 -32 59 -45z m-2413 26 c52 -18 96 -33 98 -34 1 -1 -9 -44 -23 -96 -14
-52 -30 -140 -37 -197 l-13 -104 -95 7 c-52 4 -98 10 -102 14 -11 10 -48 157
-54 216 -5 49 -3 52 58 137 35 49 65 88 68 88 3 0 48 -14 100 -31z m146 -27
c-12 -11 -17 7 -9 34 l8 29 3 -28 c2 -16 1 -31 -2 -35z m267 -9 c-34 -76 -37
-79 -69 -64 l-27 12 54 55 c29 29 57 54 61 54 4 0 -5 -26 -19 -57z m4977 40
c0 -5 -19 -64 -42 -133 l-42 -125 -7 60 c-4 33 -10 90 -14 127 l-6 67 33 4
c60 7 78 7 78 0z m-6794 -193 c20 -74 38 -144 42 -154 4 -16 1 -18 -19 -13
-13 4 -44 7 -68 7 l-44 0 6 88 c3 48 11 128 18 177 11 75 14 85 21 60 4 -16
24 -91 44 -165z m3148 143 c-15 -27 -34 -58 -42 -70 -8 -13 -12 -23 -9 -23 3
0 25 32 49 71 l43 71 83 -5 c46 -3 88 -9 93 -14 7 -7 -24 -41 -83 -95 l-93
-85 -68 -6 c-77 -7 -148 -40 -194 -90 l-28 -31 38 32 c40 34 97 67 97 56 0 -4
6 -1 14 5 8 7 41 15 73 18 l58 6 -40 -44 -40 -44 47 44 47 44 53 -12 c29 -6
71 -20 93 -30 l40 -18 -40 -21 c-22 -12 -36 -21 -32 -22 4 0 25 9 47 20 l38
20 59 -44 c60 -46 99 -83 92 -90 -2 -2 -49 -11 -104 -20 -93 -14 -67 -14 66 0
l57 7 27 -42 28 -41 -37 -55 c-52 -74 -54 -76 -105 -64 -25 5 -51 8 -60 6 -9
-2 8 -7 37 -11 28 -4 52 -12 52 -16 0 -5 -18 -22 -39 -39 l-39 -31 -18 52
c-20 60 -74 138 -130 187 -45 40 -129 81 -164 80 -19 -1 -15 -3 13 -10 37 -9
97 -36 107 -48 3 -3 14 -11 25 -17 31 -17 107 -115 101 -130 -3 -8 -1 -14 5
-14 9 0 28 -38 44 -88 6 -20 0 -26 -57 -52 -35 -16 -76 -30 -91 -32 -28 -3
-30 0 -51 74 -27 93 -71 156 -131 190 -11 6 1 -8 26 -30 50 -45 93 -129 103
-199 6 -51 -8 -58 -87 -48 -68 10 -100 22 -94 38 2 7 1 30 -3 52 l-8 40 -1
-47 c0 -27 -5 -48 -9 -48 -15 0 -76 50 -89 73 -9 17 -12 18 -13 5 0 -17 50
-64 87 -81 25 -11 25 -22 -4 -90 -12 -28 -19 -34 -26 -25 -6 9 -7 8 -3 -4 10
-34 -14 -28 -59 13 -25 23 -45 48 -45 55 0 7 11 30 25 50 14 20 25 42 25 48
-1 6 -8 -2 -17 -19 -27 -53 -94 -113 -155 -140 -33 -15 -62 -25 -64 -22 -3 3
-6 17 -8 31 -1 14 -6 29 -9 33 -14 13 -6 111 12 167 20 63 13 65 -13 4 -10
-26 -14 -64 -12 -120 1 -46 -2 -89 -7 -96 -7 -9 -5 -11 8 -6 13 5 16 3 13 -7
-3 -10 -28 -15 -96 -17 -88 -3 -93 -2 -101 20 -9 20 -3 30 47 77 l57 53 -53
-42 c-29 -23 -55 -40 -59 -37 -8 8 15 134 32 174 8 18 19 33 24 33 6 0 8 6 5
13 -8 22 76 108 131 133 27 13 44 24 37 24 -26 0 -94 -42 -132 -81 -63 -65
-110 -187 -110 -283 0 -24 -7 -38 -22 -49 -21 -13 -28 -13 -71 4 -27 11 -73
35 -103 54 -88 56 -78 69 89 125 71 23 127 44 125 46 -2 1 -60 -15 -128 -37
-69 -21 -126 -39 -126 -39 -9 0 27 93 60 155 l42 79 89 0 c89 -1 89 -1 13 3
-43 2 -78 8 -78 12 0 11 81 85 108 100 11 6 29 8 39 5 13 -4 15 -3 4 4 -26 18
75 47 164 46 70 0 75 12 6 15 -14 1 -34 9 -45 19 -16 13 -18 13 -8 1 10 -14 4
-18 -53 -34 -70 -19 -162 -73 -209 -124 -29 -30 -32 -31 -110 -30 -45 1 -105
4 -134 7 l-52 7 34 50 c19 28 54 69 78 92 l43 43 114 -41 c63 -22 116 -38 118
-36 2 3 -46 22 -107 43 -60 22 -110 41 -110 44 0 10 117 80 162 97 l47 17 81
-62 c44 -35 80 -61 80 -59 0 3 -32 30 -71 62 -39 31 -68 59 -66 62 13 12 129
20 187 12 117 -17 232 -95 250 -171 6 -23 8 -2 9 74 l1 108 43 31 c49 36 88
54 160 74 90 24 93 22 61 -32z m836 -30 c0 -72 -7 -73 -34 -3 -17 42 -17 45 0
57 30 22 34 15 34 -54z m2654 25 c13 -98 27 -312 21 -336 -5 -22 -19 -2 -96
148 -49 96 -95 180 -101 187 -6 8 -9 15 -7 17 4 3 123 22 160 25 12 1 18 -10
23 -41z m-4791 -30 c4 -41 2 -48 -14 -48 -28 0 -32 17 -13 67 20 50 20 50 27
-19z m1680 5 c59 -30 108 -66 100 -73 -4 -4 -59 -30 -120 -59 -109 -50 -114
-51 -142 -37 -16 9 -58 24 -93 33 l-65 18 93 87 94 88 51 -20 c28 -11 65 -28
82 -37z m-3640 -117 l-17 -158 -60 7 c-34 4 -62 8 -64 10 -5 5 33 85 91 192
34 62 63 111 64 109 2 -2 -4 -74 -14 -160z m5577 70 c0 -2 -18 -6 -40 -8 -22
-2 -40 -3 -40 -1 0 1 5 25 11 54 l11 52 29 -47 c16 -25 29 -48 29 -50z m-3900
16 c1 -26 4 -66 9 -88 7 -35 4 -48 -16 -80 -13 -22 -37 -65 -54 -96 -29 -58
-64 -80 -55 -35 3 12 8 51 11 85 6 57 50 255 62 275 2 4 13 2 24 -3 14 -8 19
-22 19 -58z m2373 21 l18 -48 -40 40 c-29 28 -37 41 -28 47 23 15 33 8 50 -39z
m2581 -173 l108 -215 -57 -125 c-97 -210 -281 -535 -310 -546 -7 -3 -105 12
-216 34 l-204 39 0 44 c1 24 7 98 15 164 12 109 19 133 72 259 62 145 132 344
163 458 l18 67 41 6 c176 26 224 33 241 31 16 -1 44 -49 129 -216z m-2216 143
l50 -68 -10 -52 c-12 -58 -34 -71 -43 -25 -3 15 -16 69 -29 120 -12 50 -21 92
-20 92 1 0 25 -30 52 -67z m551 -9 c24 -41 42 -77 39 -79 -2 -2 -29 -8 -61
-13 -40 -6 -57 -6 -57 2 0 28 24 166 29 166 3 0 26 -34 50 -76z m-3238 52 c19
-7 42 -16 52 -19 16 -6 13 -13 -24 -63 -29 -38 -45 -51 -49 -42 -9 15 -23 138
-17 138 3 0 20 -6 38 -14z m2355 -109 c3 -10 -2 -51 -11 -91 l-16 -74 -42 -6
c-38 -6 -43 -4 -62 21 -11 15 -41 51 -67 78 -44 48 -46 53 -41 94 6 42 8 45
67 72 l61 28 53 -52 c28 -28 55 -60 58 -70z m2067 1 c-27 -99 -99 -306 -137
-391 l-23 -52 -6 220 c-4 121 -10 236 -13 256 l-6 36 69 10 c37 6 85 11 105
12 l37 1 -26 -92z m-5328 -68 c15 -63 29 -121 32 -127 3 -10 -16 -13 -77 -13
l-82 0 7 78 c5 61 14 91 43 144 43 78 39 83 77 -82z m-1540 -41 c6 -18 3 -20
-36 -17 l-43 3 2 50 c1 28 5 73 9 100 l6 50 28 -83 c15 -46 31 -92 34 -103z
m2597 163 c5 -5 -1 -44 -12 -88 -12 -43 -24 -110 -28 -149 l-7 -70 -36 -3 -36
-3 -21 83 c-12 46 -23 90 -24 100 -2 9 19 46 46 83 46 63 51 67 80 61 17 -4
34 -10 38 -14z m4062 -62 c4 -36 9 -168 10 -295 l1 -230 -29 -55 -29 -55 -24
80 c-39 133 -112 323 -174 454 -33 68 -57 127 -53 130 7 8 231 39 264 38 23
-2 26 -7 34 -67z m-2114 28 l0 -32 -22 22 c-20 19 -21 24 -8 32 25 16 30 12
30 -22z m-1878 10 c9 -8 21 -43 27 -81 l12 -69 -34 -51 c-19 -29 -39 -62 -46
-74 -7 -15 -21 -23 -36 -23 -32 0 -32 22 -6 157 30 151 42 173 83 141z m97
-80 c-17 -21 -34 -40 -39 -43 -9 -5 -20 43 -20 86 l0 28 44 -16 45 -17 -30
-38z m1754 44 l27 -28 -20 -79 c-11 -44 -24 -83 -28 -87 -4 -4 -29 -11 -55
-14 -47 -7 -48 -6 -105 48 -31 30 -66 59 -77 65 -11 7 -17 14 -14 17 9 9 223
106 235 106 5 0 22 -13 37 -28z m1836 -49 c84 -168 166 -385 211 -554 l22 -86
-47 -82 c-35 -61 -52 -81 -64 -78 -10 2 -119 24 -243 47 l-226 44 -6 37 c-11
69 12 178 64 299 42 100 82 219 132 390 14 47 16 48 105 59 7 0 30 -34 52 -76z
m-183 40 c-3 -10 -12 -46 -20 -79 -17 -66 -85 -267 -110 -324 -15 -34 -15 -32
-16 80 0 63 -5 160 -10 214 -5 55 -9 101 -7 102 3 3 119 21 150 23 13 1 17 -4
13 -16z m-4161 -106 c15 -60 25 -110 23 -112 -8 -8 -158 9 -158 17 0 12 101
210 105 206 2 -2 15 -52 30 -111z m907 67 l87 -28 -47 -50 c-27 -28 -63 -72
-80 -98 -29 -42 -38 -48 -67 -48 -31 0 -37 4 -50 37 -9 21 -21 56 -26 80 -11
41 -10 43 32 93 23 28 48 49 53 47 6 -2 50 -17 98 -33z m1953 -29 c21 -30 36
-57 34 -59 -2 -2 -15 -6 -28 -8 -22 -3 -26 2 -33 37 -4 22 -10 50 -13 63 -3
12 -4 22 -1 22 2 0 21 -25 41 -55z m1118 -12 c12 -118 8 -420 -5 -448 -11 -24
-15 -14 -63 132 -29 87 -73 203 -99 257 -25 55 -45 100 -44 102 5 4 133 21
169 23 l36 1 6 -67z m-753 5 c0 -5 -4 -8 -9 -8 -5 0 -16 -3 -25 -6 -17 -7 -22
19 -9 51 5 15 8 15 24 -6 10 -13 19 -27 19 -31z m-573 -82 c-2 -6 -36 -15 -76
-21 -57 -9 -71 -9 -67 1 5 13 18 62 31 119 l7 30 54 -59 c30 -33 53 -64 51
-70z m1138 7 c53 -121 131 -347 141 -409 6 -38 -13 -91 -54 -152 -7 -11 -40
-8 -178 19 -93 17 -170 32 -171 33 -1 1 4 51 12 112 8 60 15 169 15 242 0 126
12 213 32 239 9 12 44 18 119 21 l36 2 48 -107z m-975 75 c0 -13 3 -33 6 -45
5 -19 2 -23 -16 -23 -20 0 -22 4 -16 31 3 17 6 38 6 45 0 8 5 14 10 14 6 0 10
-10 10 -22z m737 -20 c-3 -7 -5 -2 -5 12 0 14 2 19 5 13 2 -7 2 -19 0 -25z
m-7302 -8 c429 -16 794 -30 812 -30 31 0 33 -3 122 -185 l90 -186 -53 -137
c-135 -344 -243 -726 -310 -1086 l-22 -120 -43 -14 -43 -14 -90 88 c-203 201
-502 554 -712 841 -122 168 -318 465 -434 659 -116 194 -126 214 -110 214 7 0
364 -14 793 -30z m4179 -58 l24 -82 -38 0 c-21 0 -52 3 -69 6 l-31 6 41 80
c23 43 43 77 45 75 3 -2 15 -41 28 -85z m3098 36 c5 -57 -26 -160 -84 -288
l-30 -65 -42 120 c-23 66 -57 149 -75 184 -18 34 -30 66 -26 69 7 7 161 29
217 31 l36 1 4 -52z m-240 -76 c25 -53 60 -144 78 -200 32 -101 33 -103 16
-140 -9 -20 -25 -47 -34 -59 l-17 -22 -108 21 c-109 21 -109 21 -102 47 3 14
8 96 11 181 4 88 12 178 20 207 15 53 15 53 80 62 6 0 32 -43 56 -97z m-146
61 c-10 -10 -19 5 -10 18 6 11 8 11 12 0 2 -7 1 -15 -2 -18z m-3756 0 c0 -22
-17 -50 -25 -42 -6 7 11 59 20 59 3 0 5 -8 5 -17z m1302 -111 c-30 -2 -56 -1
-59 1 -2 3 13 32 34 66 l38 61 21 -62 21 -63 -55 -3z m2428 73 c0 -39 -9 -78
-32 -135 -18 -44 -35 -80 -38 -80 -3 0 -16 28 -29 63 -13 34 -37 88 -53 121
-16 32 -28 60 -26 62 4 3 120 21 156 23 20 1 22 -3 22 -54z m-5680 26 c0 -5
-29 -69 -64 -142 l-65 -134 -59 125 c-87 185 -94 166 58 162 72 -2 130 -7 130
-11z m312 -7 l105 -7 6 -226 c3 -124 13 -287 22 -361 20 -173 74 -441 120
-599 19 -68 33 -127 29 -130 -7 -7 -68 60 -173 194 -166 212 -299 411 -445
668 l-67 117 47 108 c25 59 62 137 80 175 l34 67 69 0 c37 0 115 -3 173 -6z
m5203 -64 c19 -38 46 -99 60 -135 l24 -65 -30 -53 c-47 -79 -42 -76 -107 -63
-55 12 -57 13 -54 42 1 16 3 100 5 187 l2 157 32 0 c30 0 35 -5 68 -70z
m-4930 47 c1 -1 21 -49 45 -107 23 -58 85 -188 136 -290 88 -174 93 -188 84
-220 -22 -74 -79 -381 -95 -505 -9 -71 -19 -133 -23 -136 -14 -13 -76 -29 -82
-22 -9 10 -62 202 -89 318 -56 247 -80 454 -88 744 l-6 234 58 -7 c33 -4 59
-8 60 -9z m4809 -3 c8 -20 8 -218 0 -267 l-7 -37 -24 71 c-13 39 -32 87 -42
107 -18 36 -18 38 2 90 16 41 24 52 42 52 13 0 26 -7 29 -16z m-4337 -8 c1 -1
-17 -49 -41 -107 -23 -57 -64 -168 -90 -246 -26 -79 -50 -143 -52 -143 -13 0
-234 476 -234 505 0 5 410 -4 417 -9z m4257 -8 c-15 -50 -21 -53 -38 -20 -21
41 -21 42 15 42 27 0 30 -3 23 -22z m-50 -30 l25 -41 -31 -61 c-16 -34 -44
-82 -61 -108 -28 -42 -34 -46 -62 -41 -40 8 -42 9 -81 99 l-35 79 22 47 c21
44 25 48 68 53 25 4 51 8 56 10 6 2 24 4 42 4 27 1 36 -5 57 -41z m-4001 -180
c6 -248 28 -408 86 -638 21 -85 41 -161 43 -169 3 -15 -106 -55 -128 -47 -19
7 -178 224 -270 368 -74 117 -84 137 -79 166 10 52 84 278 127 387 22 55 44
110 49 123 8 20 15 22 87 22 l79 0 6 -212z m142 202 l42 0 32 -87 c40 -113
126 -301 184 -401 l46 -79 -14 -89 c-8 -49 -18 -132 -22 -184 l-8 -95 -115
-37 c-63 -21 -115 -36 -117 -34 -2 2 -15 43 -29 92 -35 119 -70 293 -89 439
-18 134 -32 443 -21 470 5 13 13 16 37 11 18 -3 51 -6 74 -6z m8156 -400 c119
-253 320 -762 307 -775 -4 -4 -1100 203 -1106 210 -2 2 31 51 73 109 151 210
355 547 470 775 l47 94 61 -114 c34 -63 100 -197 148 -299z m-7704 385 c9 -3
8 -15 -6 -47 -30 -70 -69 -195 -104 -331 l-33 -129 -56 109 c-54 104 -104 217
-154 350 l-24 63 183 -6 c100 -3 188 -7 194 -9z m3175 -25 c-9 -22 -19 -40
-22 -40 -3 0 -15 15 -28 33 l-22 32 32 6 c58 11 58 12 40 -31z m-3089 -137 c8
-188 27 -326 68 -488 17 -66 32 -126 32 -134 1 -8 -19 -21 -52 -32 -30 -11
-55 -18 -56 -16 -54 71 -121 167 -154 219 l-42 67 26 115 c27 122 83 306 115
381 13 31 25 45 38 45 17 0 19 -12 25 -157z m232 62 c18 -49 49 -126 70 -170
l37 -80 -16 -90 c-8 -49 -18 -119 -21 -155 -3 -36 -8 -83 -11 -106 l-5 -41
-74 -23 c-41 -13 -77 -21 -80 -19 -9 10 -56 198 -76 309 -14 74 -23 178 -26
293 l-6 178 88 -3 87 -3 33 -90z m207 80 c3 -3 -7 -38 -22 -78 -16 -40 -36
-102 -46 -139 -10 -38 -21 -68 -24 -68 -3 0 -11 12 -17 28 -58 138 -91 221
-97 240 -7 22 -7 22 97 22 57 0 106 -2 109 -5z m257 -100 c20 -49 53 -121 74
-160 l37 -70 -11 -85 c-20 -166 -7 -145 -118 -180 -54 -16 -103 -30 -109 -30
-12 0 -45 120 -67 245 -9 50 -19 154 -22 233 l-6 143 93 -3 93 -3 36 -90z
m117 85 l64 0 0 -36 c0 -20 -12 -75 -26 -123 -42 -139 -36 -135 -76 -56 -40
79 -88 197 -88 215 0 9 10 10 31 6 17 -3 60 -6 95 -6z m94 -9 c0 -6 -4 -13
-10 -16 -5 -3 -10 1 -10 9 0 9 5 16 10 16 6 0 10 -4 10 -9z m144 -1 c29 0 33
-5 69 -83 33 -73 37 -87 27 -113 -6 -16 -19 -76 -29 -133 l-17 -105 -69 -23
c-53 -18 -71 -20 -77 -10 -14 23 -48 184 -58 279 -8 78 -7 104 5 138 22 62 23
63 73 56 25 -3 59 -6 76 -6z m3092 -273 c-7 -59 -16 -111 -19 -114 -4 -3 -17
-3 -31 1 -20 5 -26 16 -38 68 l-14 63 37 80 c19 44 44 104 55 134 l19 54 3
-89 c1 -49 -4 -138 -12 -197z m-2984 213 c1 -33 0 -60 -3 -60 -5 0 -49 99 -49
113 0 4 11 7 24 7 23 0 24 -4 28 -60z m57 53 c0 -5 -9 -26 -19 -48 l-19 -40 0
48 c-1 41 2 47 19 47 11 0 20 -3 19 -7z m107 -3 c51 0 54 -2 72 -35 18 -35 17
-36 -15 -138 -18 -56 -35 -119 -38 -139 -3 -21 -10 -38 -15 -38 -12 0 -92 101
-127 159 -23 40 -25 47 -13 79 31 88 52 123 67 118 8 -3 39 -6 69 -6z m124 -6
c0 -3 -5 -15 -11 -26 -11 -21 -12 -21 -25 -3 -20 27 -17 35 11 35 14 0 25 -3
25 -6z m277 -8 c2 -1 -17 -41 -42 -88 -24 -48 -47 -102 -50 -121 -11 -57 -41
-57 -94 0 -24 27 -59 70 -77 97 l-33 49 19 36 18 37 129 -4 c70 -2 129 -5 130
-6z m2013 -161 c-6 -60 -15 -114 -19 -118 -5 -5 -17 25 -27 66 l-17 75 34 78
c33 75 34 76 37 43 2 -19 -1 -83 -8 -144z m-3255 -166 c8 -52 22 -120 30 -150
l14 -54 -20 25 c-11 14 -47 70 -80 125 -69 115 -68 102 -12 277 l37 113 7
-120 c4 -66 15 -163 24 -216z m2924 195 c18 -53 31 -98 29 -99 -3 -3 -124 18
-175 30 -21 5 -21 6 10 53 18 26 43 69 57 95 31 58 35 54 79 -79z m-305 30
c15 -37 26 -68 24 -69 -5 -5 -123 17 -131 25 -8 7 62 110 74 110 4 0 19 -30
33 -66z m3002 -107 c-7 -139 -28 -326 -49 -447 -9 -54 -17 -75 -28 -74 -21 2
-263 47 -267 50 -2 1 28 53 67 116 39 62 115 199 168 305 54 105 102 189 107
186 5 -4 6 -62 2 -136z m-4580 -3 l43 -51 -91 -28 c-50 -15 -98 -30 -106 -33
-20 -7 -9 63 25 171 l24 78 31 -43 c17 -24 50 -66 74 -94z m-608 -158 c6 -22
10 -41 8 -43 -2 -2 -25 28 -50 66 l-47 70 22 83 23 83 17 -110 c9 -60 21 -128
27 -149z m2149 194 l72 -13 9 -41 c7 -35 6 -45 -12 -65 -29 -32 -131 -103
-193 -135 l-53 -26 0 72 c0 40 -4 89 -9 109 -8 35 -7 38 43 77 28 23 56 40 61
38 6 -2 42 -9 82 -16z m623 -95 c0 -13 -68 -7 -76 6 -3 5 7 30 23 56 l27 47
13 -50 c7 -27 13 -54 13 -59z m-2493 -23 l19 -82 -35 -10 c-20 -5 -41 -10 -47
-10 -12 0 -5 67 17 165 15 66 17 63 46 -63z m70 1 l42 -52 -36 -12 c-43 -14
-48 -8 -63 71 -6 30 -13 64 -16 75 -4 17 -2 16 13 -5 10 -14 37 -48 60 -77z
m1931 88 c10 -6 9 -13 -7 -32 -21 -26 -19 -27 -36 26 -5 16 21 20 43 6z m234
-76 c-5 -34 -57 -186 -80 -230 -17 -34 -22 -38 -113 -100 -64 -43 -86 -54 -75
-37 13 22 26 223 18 292 -9 73 -8 76 19 111 l29 36 102 -22 103 -22 -3 -28z
m2776 -67 c60 -174 131 -432 120 -437 -5 -2 -61 7 -124 19 -99 20 -114 25
-109 40 12 38 45 291 51 393 4 59 10 107 13 107 4 0 26 -55 49 -122z m-3332
10 c10 -118 7 -119 -86 -47 -81 63 -94 79 -62 79 9 0 42 13 72 28 30 15 58 25
62 22 4 -3 10 -40 14 -82z m-1256 72 c0 -5 -5 -10 -11 -10 -5 0 -7 5 -4 10 3
6 8 10 11 10 2 0 4 -4 4 -10z m1913 -6 c20 -3 37 -8 37 -11 0 -2 -19 -29 -42
-60 l-43 -56 -6 34 c-21 109 -21 111 -2 105 10 -3 35 -8 56 -12z m507 -38 c8
-34 7 -36 -19 -36 -39 0 -42 7 -19 46 23 40 27 39 38 -10z m-2443 26 c9 -6 14
-48 16 -140 1 -73 1 -132 -2 -132 -9 0 -99 55 -146 91 -58 43 -121 106 -113
114 8 8 200 73 218 74 8 0 21 -3 27 -7z m2058 -13 c36 -9 44 -16 47 -38 12
-91 -147 -448 -224 -502 -16 -12 -31 -19 -33 -17 -3 2 2 36 11 74 9 38 18 134
21 213 l6 144 55 68 c30 38 59 69 64 69 5 0 29 -5 53 -11z m-5655 -96 c129
-226 344 -533 512 -730 l78 -92 -207 -67 c-115 -36 -337 -108 -495 -159 -237
-76 -288 -89 -288 -76 0 58 84 435 145 651 59 210 182 570 194 570 4 0 31 -44
61 -97z m4618 67 l44 0 -7 -52 c-4 -29 -12 -64 -17 -77 -8 -23 -11 -21 -55 45
-25 38 -50 74 -56 79 -15 15 0 -10 55 -92 l49 -73 -28 0 c-37 0 -120 23 -160
44 l-33 16 25 53 c13 28 26 59 29 68 4 15 10 15 57 3 30 -8 73 -14 97 -14z
m551 -100 c1 -83 -13 -218 -24 -228 -2 -2 -56 38 -120 88 -64 50 -119 90 -121
87 -3 -3 47 -46 111 -96 63 -51 113 -96 110 -101 -8 -13 -164 -67 -234 -81
-54 -10 -65 -10 -78 3 -13 14 -11 25 21 104 19 49 38 108 42 131 6 39 10 43
84 83 43 23 104 63 136 90 71 57 72 55 73 -80z m291 65 l6 -55 -47 -46 -47
-46 34 88 c18 49 33 98 34 108 0 38 14 4 20 -49z m-2960 -170 c23 -31 40 -58
38 -60 -10 -9 -210 -66 -216 -61 -7 8 14 216 29 287 l11 51 48 -81 c27 -44 68
-106 90 -136z m387 140 l51 -74 -53 -16 c-30 -8 -62 -18 -71 -22 -14 -5 -15 0
-10 33 3 21 8 65 12 97 3 31 9 57 13 56 3 0 29 -33 58 -74z m809 40 c32 -19
73 -41 91 -47 18 -7 32 -15 31 -19 -8 -19 -171 -140 -179 -132 -19 19 -24 233
-5 233 2 0 30 -16 62 -35z m1085 -37 l90 -72 -38 -14 c-21 -7 -73 -16 -117
-19 l-78 -6 7 24 c15 47 25 94 25 127 0 17 5 32 10 32 6 0 51 -32 101 -72z
m1062 53 c48 -10 90 -21 93 -24 8 -8 -46 -86 -125 -181 l-66 -80 -10 130 c-11
138 -9 174 9 174 6 -1 51 -9 99 -19z m-1470 -127 c-15 -24 -88 -81 -131 -103
-21 -11 -26 -9 -48 16 -37 42 -76 112 -69 123 3 6 12 10 18 10 7 0 30 9 51 20
22 10 43 17 47 14 5 -3 9 2 9 10 0 8 8 19 18 25 14 8 27 0 69 -41 50 -49 51
-52 36 -74z m2891 60 c-6 -43 -8 -46 -16 -24 -6 15 -5 34 3 52 16 40 22 28 13
-28z m-3934 39 c5 -140 6 -233 3 -233 -8 0 -83 167 -85 190 -2 18 5 25 32 36
42 15 50 16 50 7z m3243 -83 c-4 -4 -18 -4 -30 -1 l-21 6 26 45 27 45 3 -44
c2 -24 0 -47 -5 -51z m-524 64 c3 -2 8 -28 12 -57 19 -135 8 -190 -79 -371
-49 -101 -141 -257 -184 -309 l-23 -28 -57 43 c-38 28 -55 48 -52 58 18 49 55
237 60 306 l7 81 69 79 c38 43 90 110 116 147 l47 69 40 -7 c21 -3 41 -8 44
-11z m-2173 -31 c-10 -10 -19 5 -10 18 6 11 8 11 12 0 2 -7 1 -15 -2 -18z
m2239 17 c7 -11 -14 -115 -21 -108 -2 2 -7 29 -12 61 -8 51 -7 57 9 57 10 0
21 -5 24 -10z m-2885 -13 c0 -8 27 -67 59 -133 69 -138 98 -232 75 -241 -17
-6 -105 45 -182 107 l-57 46 0 104 0 103 35 13 c47 17 70 17 70 1z m156 -8
c27 -31 110 -91 178 -129 56 -32 58 -34 38 -49 -189 -150 -179 -146 -223 -74
-18 29 -23 55 -27 154 -5 124 -1 136 34 98z m2932 -18 c78 -15 145 -31 148
-34 19 -19 -274 -384 -358 -447 l-31 -23 7 44 c4 24 8 106 11 182 4 161 38
321 65 312 8 -3 79 -18 158 -34z m-2442 9 c8 0 14 -7 14 -16 0 -8 11 -49 25
-91 33 -96 26 -108 -54 -98 -31 4 -91 18 -135 32 l-79 25 39 31 c21 18 63 53
94 79 30 26 61 45 68 42 8 -2 20 -4 28 -4z m306 -127 c29 -31 19 -39 -80 -64
-152 -38 -170 -18 -93 103 64 98 84 104 124 33 15 -27 37 -60 49 -72z m1536 0
l-3 -97 -79 -68 c-43 -38 -80 -67 -81 -66 -2 2 25 60 60 131 35 70 69 150 76
177 19 74 30 41 27 -77z m-2616 32 c2 -47 0 -85 -3 -85 -9 0 -119 117 -119
128 0 8 80 39 107 41 8 1 13 -27 15 -84z m938 76 c0 -8 -85 -140 -91 -141 -4
0 -23 55 -45 132 -5 16 2 17 65 15 39 -1 71 -4 71 -6z m523 -57 c26 -4 49 -10
52 -14 5 -9 -86 -148 -113 -173 -20 -19 -21 -18 -31 20 -5 21 -15 64 -22 96
-7 31 -14 55 -16 53 -3 -2 5 -47 16 -100 12 -53 21 -98 21 -101 0 -24 -139 43
-204 98 l-39 33 49 32 c27 17 66 49 87 70 l38 39 57 -23 c31 -13 78 -26 105
-30z m903 -56 c-5 -98 -37 -292 -49 -304 -5 -6 -172 123 -172 133 0 25 100
167 155 220 36 35 67 63 69 63 2 0 1 -51 -3 -112z m1773 -2 c1 -16 -4 -18 -41
-12 -23 4 -44 9 -46 11 -2 2 11 30 29 62 l34 58 11 -50 c7 -27 13 -58 13 -69z
m-2384 14 c-9 -34 -27 -87 -41 -118 l-25 -56 -64 97 c-36 53 -65 99 -65 101 0
3 25 8 56 12 31 3 77 12 102 19 26 7 48 11 50 10 2 -2 -4 -31 -13 -65z m1694
61 c13 -8 13 -20 -3 -88 -60 -252 -206 -570 -363 -785 l-49 -67 -64 51 c-36
27 -66 53 -68 58 -2 5 8 50 22 102 14 51 30 124 37 163 12 69 13 70 86 139 90
84 212 228 294 348 59 86 76 99 108 79z m-3587 -32 c18 -53 105 -226 144 -286
32 -50 69 -133 62 -138 -2 0 -26 -20 -54 -43 l-51 -41 -94 64 c-156 108 -150
100 -160 198 -6 47 -9 119 -7 159 l3 73 60 22 c79 29 84 28 97 -8z m3659 -161
c7 -86 9 -209 5 -308 l-6 -165 -57 -53 c-59 -55 -244 -197 -321 -247 -43 -28
-43 -28 -63 -9 -20 20 -20 21 64 146 92 138 175 294 230 433 32 81 95 282 112
360 7 28 8 29 15 8 5 -11 14 -86 21 -165z m447 87 c27 -10 -176 -281 -324
-433 l-94 -97 6 135 c6 120 -6 353 -22 451 l-6 37 213 -44 c118 -25 220 -46
227 -49z m-3954 -99 c4 -28 9 -67 12 -86 5 -33 4 -32 -32 25 -34 56 -83 154
-106 215 -7 18 8 8 55 -39 59 -57 65 -68 71 -115z m1599 67 c63 -97 68 -108
56 -130 -10 -19 -20 -23 -56 -23 -52 0 -178 19 -211 31 -22 9 -22 10 28 70 28
33 62 83 75 110 14 27 29 49 33 48 4 0 38 -48 75 -106z m-3551 -212 c39 -53
82 -108 96 -123 14 -15 23 -30 20 -33 -11 -11 -418 -138 -424 -133 -12 13 63
485 92 582 5 14 23 -7 75 -89 39 -59 102 -151 141 -204z m786 86 c9 -10 12
-21 6 -26 -13 -12 -185 -63 -191 -57 -6 5 14 225 24 278 5 26 11 20 75 -75 39
-56 77 -110 86 -120z m836 70 l6 -139 -33 27 c-46 38 -168 177 -161 184 5 5
178 70 180 67 1 0 4 -63 8 -139z m914 73 c30 -11 89 -26 132 -33 l79 -12 -74
-115 -74 -114 -45 94 c-36 77 -81 200 -73 200 1 0 26 -9 55 -20z m1591 -19
c-12 -21 -31 -51 -44 -66 l-22 -28 -26 19 c-15 10 -26 21 -27 24 0 4 130 89
138 90 2 0 -7 -17 -19 -39z m-1639 -42 c13 -38 40 -104 62 -146 47 -93 45
-108 -18 -99 -95 13 -127 28 -191 95 -35 35 -63 67 -62 70 0 7 171 149 180
150 4 1 17 -31 29 -70z m632 19 c40 -29 92 -62 116 -72 23 -10 42 -22 42 -25
0 -11 -124 -89 -175 -111 -56 -24 -73 -25 -95 -5 -15 13 -14 24 9 140 14 69
27 125 28 125 1 0 35 -24 75 -52z m-92 37 c0 -9 -41 -199 -46 -214 -6 -18 -58
31 -121 114 l-45 60 59 8 c33 4 78 13 99 21 44 16 54 18 54 11z m3031 -10 c16
-10 -70 -312 -138 -485 -75 -190 -218 -463 -265 -507 -33 -31 -219 -153 -232
-153 -6 0 -21 8 -33 18 l-21 17 34 130 c18 72 44 195 56 275 l22 145 71 75
c152 161 276 313 365 448 l35 53 49 -6 c28 -3 53 -8 57 -10z m-4617 -116 c49
-122 141 -286 215 -384 23 -30 41 -57 41 -60 0 -7 -201 -165 -211 -165 -12 0
-165 105 -241 166 l-66 53 -9 78 c-4 43 -8 141 -8 217 l0 139 110 38 c61 21
112 38 115 38 3 0 27 -54 54 -120z m1351 111 c3 -5 1 -10 -4 -10 -6 0 -11 5
-11 10 0 6 2 10 4 10 3 0 8 -4 11 -10z m3535 -51 c163 -33 180 -37 180 -48 0
-21 -316 -419 -325 -409 -1 2 -8 71 -14 153 -11 136 -20 216 -37 314 -5 33 -5
33 23 26 15 -3 93 -20 173 -36z m-3496 -15 c16 -25 55 -73 87 -107 46 -48 57
-66 53 -83 -6 -25 -16 -28 -129 -44 -131 -18 -203 -12 -222 19 -9 14 3 39 66
139 88 141 100 147 145 76z m-1188 -204 c3 -19 16 -80 30 -134 13 -55 22 -101
20 -103 -6 -7 -111 156 -160 247 -25 47 -59 119 -76 160 l-31 75 106 -105 c83
-83 106 -112 111 -140z m471 132 l62 -39 -66 -53 -66 -53 -23 26 c-22 26 -37
77 -50 176 l-7 55 44 -36 c24 -20 72 -54 106 -76z m2792 -26 c-10 -179 -8
-175 -97 -243 -103 -79 -177 -129 -166 -112 5 8 38 57 72 109 61 91 145 254
173 333 7 20 15 37 19 37 3 0 2 -56 -1 -124z m1205 -2 c8 -66 18 -182 22 -259
l7 -140 -120 -115 c-66 -63 -154 -143 -196 -178 l-77 -63 60 113 c114 219 220
493 266 690 10 43 19 76 20 75 2 -2 10 -57 18 -123z m-1566 49 c-9 -80 -33
-201 -50 -260 l-13 -43 -85 66 c-47 36 -86 69 -88 74 -6 17 42 70 107 119 36
27 79 63 95 80 17 17 33 31 36 31 4 0 3 -30 -2 -67z m-573 35 c-4 -13 -21 -58
-37 -101 -26 -69 -36 -82 -85 -119 -30 -23 -58 -37 -61 -32 -69 99 -112 165
-112 172 0 5 30 14 68 21 37 7 103 27 147 45 44 19 81 34 83 35 2 0 0 -9 -3
-21z m75 -26 c-1 -4 -26 -34 -56 -67 -31 -33 -53 -53 -51 -45 3 8 16 47 28 86
l24 72 28 -20 c15 -11 27 -22 27 -26z m-1808 -14 c-9 -9 -13 -7 -17 5 -17 53
-17 53 7 30 17 -18 19 -26 10 -35z m-1108 -95 c3 -76 9 -165 13 -197 8 -77 -5
-69 -56 32 -42 84 -107 250 -100 256 4 3 119 44 130 45 3 1 9 -61 13 -136z
m5604 81 c72 -15 132 -31 132 -36 0 -18 -61 -254 -91 -353 -76 -247 -244 -621
-372 -825 -51 -82 -57 -88 -164 -155 -165 -104 -198 -122 -190 -101 16 42 79
377 97 521 11 88 23 239 27 335 l5 175 43 45 c72 76 209 244 276 340 51 72 68
90 84 86 11 -2 80 -17 153 -32z m-3419 -6 c22 -59 54 -239 44 -249 -7 -7 -35
-2 -89 16 -75 25 -214 93 -214 105 0 3 30 20 68 37 37 18 90 51 117 72 28 22
53 40 58 40 4 1 11 -9 16 -21z m317 -5 c-10 -10 -19 5 -10 18 6 11 8 11 12 0
2 -7 1 -15 -2 -18z m512 -35 c42 -34 81 -65 86 -69 9 -8 -103 -68 -191 -101
-56 -21 -195 -59 -199 -55 -1 1 15 31 37 67 31 52 174 220 187 220 2 0 38 -28
80 -62z m-1833 -3 l47 -55 -53 20 c-68 27 -69 28 -69 49 0 13 17 41 26 41 1 0
23 -25 49 -55z m1104 35 c29 -5 78 -10 107 -10 30 0 54 -4 54 -8 0 -15 -107
-138 -149 -171 -47 -37 -42 -43 -71 84 -11 50 -23 98 -26 108 -5 15 -2 18 13
13 10 -3 42 -10 72 -16z m-2449 -2 c0 -7 20 -62 45 -123 l44 -110 -95 99 c-51
55 -94 105 -94 111 0 12 49 32 83 34 9 1 17 -5 17 -11z m2751 -104 c70 -107
72 -95 -26 -146 -58 -30 -63 -31 -155 -25 -53 3 -108 11 -124 17 l-28 10 79
78 c44 42 92 96 108 120 21 32 34 42 55 42 24 0 36 -13 91 -96z m3469 19 c8
-8 42 -177 65 -316 l13 -79 -101 -106 c-177 -189 -410 -400 -612 -551 -43 -33
-81 -59 -83 -57 -1 2 14 32 34 66 48 82 174 343 215 445 57 143 129 367 166
516 l36 146 130 -28 c71 -15 133 -31 137 -36z m-6336 32 c9 -13 69 -79 134
-147 136 -140 181 -213 206 -329 9 -42 27 -111 40 -153 l24 -77 -101 -81 c-56
-45 -109 -87 -118 -95 -13 -11 -34 -1 -150 76 -74 49 -164 114 -200 144 l-66
55 -11 124 c-18 196 -24 342 -17 390 l7 44 106 36 c59 20 112 37 118 37 7 1
19 -10 28 -24z m1373 3 c5 -7 22 -44 38 -83 31 -78 74 -158 118 -223 27 -40
28 -45 14 -60 -22 -21 -43 -11 -139 67 -72 58 -199 186 -197 200 1 11 131 111
144 111 7 0 17 -6 22 -12z m118 -48 c28 -9 80 -40 117 -68 l66 -50 -55 -82
-55 -83 -35 54 c-38 58 -123 231 -123 250 0 7 7 8 18 4 9 -4 40 -15 67 -25z
m665 -11 c0 -5 -7 -9 -15 -9 -9 0 -12 6 -9 15 6 15 24 11 24 -6z m1290 6 c-7
-9 -15 -13 -19 -10 -3 3 1 10 9 15 21 14 24 12 10 -5z m3236 -48 c4 -4 -211
-265 -214 -262 -4 4 -62 295 -62 311 0 7 48 1 137 -18 76 -16 138 -30 139 -31z
m-5790 -12 c42 -31 90 -63 105 -72 16 -10 29 -20 29 -23 0 -6 -111 -98 -137
-113 -8 -5 -17 10 -29 50 -21 70 -53 213 -49 213 2 0 38 -25 81 -55z m-1182
-152 c4 -109 11 -224 15 -255 6 -49 5 -55 -9 -48 -37 20 -82 81 -118 160 -47
102 -106 259 -101 265 4 4 188 72 200 74 3 1 9 -88 13 -196z m2586 128 c30
-15 80 -36 110 -46 30 -11 59 -22 63 -26 11 -8 -95 -73 -168 -103 -49 -20 -64
-21 -132 -14 -42 5 -79 11 -82 13 -6 7 29 194 40 217 13 24 50 27 84 6 17 -10
55 -31 85 -47z m-540 49 c0 -5 -5 -10 -11 -10 -5 0 -7 5 -4 10 3 6 8 10 11 10
2 0 4 -4 4 -10z m1620 -34 c-12 -38 -114 -139 -212 -212 l-61 -44 -52 77 -52
78 84 22 c82 22 194 66 263 102 19 11 37 18 38 16 2 -2 -1 -19 -8 -39z m-1688
18 c14 -4 16 -9 7 -25 -10 -19 -11 -19 -40 -2 -17 10 -36 24 -42 32 -10 11 -6
12 23 7 19 -4 43 -10 52 -12z m418 -4 c0 -15 -40 -194 -45 -198 -2 -2 -31 4
-65 14 -55 15 -68 24 -131 93 l-70 76 126 6 c69 4 129 9 132 13 10 10 53 7 53
-4z m898 -39 c-25 -45 -33 -49 -42 -24 -5 11 4 25 26 44 18 15 34 26 36 24 2
-2 -7 -22 -20 -44z m526 -22 c101 -82 99 -74 44 -205 -38 -91 -49 -99 -201
-149 -128 -41 -149 -43 -166 -12 -11 21 -7 32 41 108 30 47 71 126 93 175 35
79 81 154 95 154 3 0 45 -32 94 -71z m-2109 -167 l40 -32 -55 16 c-30 9 -80
26 -110 38 -54 22 -54 22 -87 105 -19 45 -31 86 -29 90 3 4 49 -36 103 -89 54
-53 116 -110 138 -128z m374 195 c9 -12 35 -43 60 -69 24 -27 41 -48 37 -48
-9 0 -168 80 -183 92 -9 8 -9 15 4 35 13 19 22 23 42 18 14 -4 32 -16 40 -28z
m5563 -98 c320 -66 585 -122 590 -125 17 -11 140 -440 203 -709 l35 -150 -37
-33 c-69 -61 -325 -257 -483 -369 -206 -147 -433 -293 -664 -425 -206 -118
-533 -284 -542 -276 -3 3 4 71 15 152 70 497 80 1075 25 1546 -7 69 -16 136
-19 150 -5 21 9 42 77 121 46 53 108 128 138 167 30 39 61 71 68 72 6 0 274
-54 594 -121z m-6170 34 c14 -38 24 -69 23 -71 -3 -3 -125 56 -134 64 -5 4 70
73 80 74 3 0 17 -30 31 -67z m-1703 -20 c14 -38 37 -97 53 -132 16 -35 27 -66
25 -68 -4 -3 -174 179 -205 219 -11 14 -8 18 30 31 69 24 71 23 97 -50z m3469
37 c15 -24 12 -26 -68 -34 l-55 -6 50 30 c28 16 52 30 55 30 3 0 11 -9 18 -20z
m-1204 -19 c28 -16 79 -41 114 -55 34 -15 90 -48 123 -73 77 -60 70 -65 -122
-71 -188 -6 -248 1 -272 33 -17 24 -16 25 38 110 30 47 58 85 61 85 4 0 30
-13 58 -29z m2265 -57 c-23 -105 -50 -204 -56 -204 -9 0 -153 115 -153 121 0
4 15 17 34 29 19 11 69 48 112 80 43 33 79 60 80 60 1 0 -6 -39 -17 -86z
m-705 -15 c-37 -75 -120 -209 -128 -209 -5 0 -66 86 -66 93 0 2 33 29 73 60
39 31 90 74 111 96 22 22 41 39 43 37 3 -2 -12 -37 -33 -77z m-3949 10 c28
-33 97 -106 154 -162 64 -63 113 -121 128 -152 14 -27 47 -86 74 -130 38 -64
53 -103 73 -190 14 -61 34 -140 44 -177 l19 -68 -68 -55 -69 -56 -117 71
c-234 142 -487 336 -669 514 l-113 111 7 100 7 100 225 77 c124 42 232 77 240
77 8 0 38 -27 65 -60z m3177 7 c6 -28 5 -42 -3 -47 -15 -9 -67 -16 -169 -24
l-75 -6 83 45 c45 25 92 52 105 61 33 23 50 15 59 -29z m-1388 -8 c78 -39 85
-44 111 -97 15 -31 52 -94 82 -140 l54 -84 -45 -68 c-26 -38 -50 -69 -56 -69
-23 0 -215 158 -309 255 -88 91 -102 109 -90 120 40 40 146 124 156 124 7 1
50 -18 97 -41z m1561 25 c27 -6 21 -9 -55 -34 -91 -29 -91 -29 -104 24 l-7 29
68 -7 c37 -3 82 -9 98 -12z m235 11 c0 -14 -132 -163 -186 -210 -75 -64 -134
-108 -138 -103 -2 2 -13 49 -26 104 -12 55 -24 105 -27 111 -2 7 16 16 44 23
26 7 77 24 112 38 35 14 95 29 135 33 39 4 74 8 79 9 4 0 7 -2 7 -5z m87 -74
l53 -80 -38 -24 c-106 -67 -369 -173 -407 -164 -9 2 15 26 56 58 78 60 207
193 247 252 13 21 27 38 31 38 3 0 30 -36 58 -80z m687 -13 l29 -24 -29 -20
c-39 -27 -157 -86 -152 -76 1 4 18 47 37 95 l34 87 26 -19 c14 -10 39 -30 55
-43z m-1676 3 c6 0 12 -9 12 -20 0 -27 -13 -25 -47 6 l-28 26 25 -6 c14 -3 31
-6 38 -6z m-609 -59 c41 -11 76 -22 78 -25 3 -2 -20 -41 -51 -86 l-55 -83 -54
84 c-30 46 -64 103 -76 126 l-21 43 52 -20 c29 -10 86 -28 127 -39z m741 32
c22 -5 20 -7 -20 -19 -62 -19 -94 -18 -86 2 3 9 6 20 6 25 0 9 37 6 100 -8z
m402 -100 c14 -65 23 -122 21 -127 -17 -27 -262 46 -405 121 -48 26 -88 49
-88 53 0 16 138 43 258 50 74 5 136 11 140 14 3 3 15 6 27 6 19 0 24 -12 47
-117z m-2154 38 c42 -32 103 -75 135 -95 l58 -37 -52 -42 -52 -41 -24 30 c-74
92 -167 244 -148 244 3 0 40 -26 83 -59z m1157 29 c3 -5 -1 -10 -10 -10 -9 0
-13 5 -10 10 3 6 8 10 10 10 2 0 7 -4 10 -10z m2283 -56 c45 -36 82 -70 82
-75 0 -14 -63 -173 -102 -260 l-35 -75 -124 -42 c-68 -22 -141 -45 -162 -51
l-38 -10 -56 84 -56 85 42 62 c22 35 59 77 82 93 22 17 90 81 150 143 60 61
115 112 122 112 6 0 49 -30 95 -66z m-5088 -15 c0 -79 -10 -83 -41 -15 -28 61
-26 65 39 85 1 1 2 -31 2 -70z m2119 9 c13 -35 46 -107 72 -160 27 -54 49
-100 49 -102 0 -8 -120 44 -232 100 -60 30 -108 59 -106 64 3 10 179 159 188
160 3 0 16 -28 29 -62z m3681 -64 c-17 -104 -76 -363 -85 -373 -4 -4 -274 202
-274 209 -1 3 23 20 52 39 66 43 218 158 277 210 25 21 46 38 47 37 2 -1 -6
-56 -17 -122z m-2335 12 c77 -37 204 -81 260 -92 146 -27 -211 -48 -392 -22
-46 6 -83 14 -83 18 0 11 30 162 35 178 3 9 20 4 57 -18 29 -18 85 -46 123
-64z m-634 74 c10 -6 19 -15 19 -21 0 -5 -13 -3 -30 6 -16 9 -30 18 -30 20 0
8 20 6 41 -5z m417 -77 c-11 -48 -20 -89 -22 -90 -6 -6 -181 49 -253 78 -45
19 -80 41 -92 58 l-20 28 127 -4 c70 -2 154 0 187 5 102 16 94 24 73 -75z
m1108 33 l36 -55 -26 -34 c-15 -19 -39 -37 -54 -41 -52 -11 -288 -19 -357 -11
l-70 7 90 29 c91 30 246 101 300 137 17 11 33 21 37 21 4 1 24 -23 44 -53z
m-1528 7 c37 -20 105 -73 152 -117 47 -45 113 -101 148 -125 65 -46 75 -69 49
-105 -11 -15 -35 -18 -162 -23 l-150 -6 -93 97 c-138 144 -132 128 -70 229 29
48 55 86 56 87 2 0 34 -17 70 -37z m1987 -53 c-49 -49 -93 -90 -96 -90 -4 0 8
27 25 60 29 54 40 64 92 90 32 16 61 29 64 29 2 1 -36 -39 -85 -89z m1691 -57
c-12 -234 -49 -491 -102 -716 -14 -59 -30 -107 -35 -105 -11 4 -459 350 -459
355 0 2 30 45 66 96 37 51 69 98 71 104 3 7 53 50 111 97 59 46 161 133 227
194 66 61 122 111 124 112 2 0 1 -62 -3 -137z m-6620 85 c28 -29 51 -69 72
-123 29 -77 31 -87 36 -280 8 -285 38 -554 92 -819 13 -65 24 -123 24 -128 0
-20 -333 170 -550 315 -264 177 -536 389 -729 570 l-54 51 9 55 9 54 510 172
c281 95 517 173 525 173 9 1 34 -17 56 -40z m2537 -208 c48 -36 87 -68 87 -73
0 -19 -36 -17 -122 7 -51 15 -98 32 -106 38 -14 12 -95 167 -126 242 -15 37
-10 33 81 -55 54 -52 137 -124 186 -159z m-716 54 c2 -7 -9 -21 -26 -33 l-30
-22 -25 83 c-45 149 -44 151 19 63 31 -44 59 -85 62 -91z m2996 65 c-28 -52
-52 -83 -91 -112 -51 -38 -53 -39 -67 -21 -30 38 -77 115 -74 118 6 5 243 83
257 84 8 1 -1 -25 -25 -69z m-1658 16 c33 -12 86 -28 118 -35 36 -9 57 -18 57
-27 0 -22 -22 -103 -28 -103 -10 0 -147 107 -197 154 -28 27 -41 45 -30 41 11
-4 47 -17 80 -30z m4605 28 c0 -5 7 -66 16 -138 21 -182 30 -736 15 -950 -24
-343 -76 -719 -98 -711 -12 5 -972 743 -1001 771 -11 10 -4 24 36 79 28 36 72
98 98 136 40 59 67 84 177 162 189 134 416 328 590 502 146 147 167 165 167
149z m-2393 -44 c29 -23 56 -46 59 -51 3 -5 -23 -41 -59 -81 -50 -56 -79 -78
-126 -99 -34 -14 -61 -24 -61 -22 0 3 13 30 29 62 15 31 43 96 61 145 19 48
36 87 38 87 3 0 29 -19 59 -41z m-842 10 c0 -8 -10 -15 -23 -17 -21 -3 -22 -2
-10 17 14 23 33 23 33 0z m-2431 -58 c64 -33 153 -74 199 -92 l82 -31 55 -85
c30 -47 59 -91 64 -98 7 -9 -7 -39 -45 -99 -29 -47 -57 -86 -62 -86 -15 0
-126 80 -215 154 -48 40 -136 124 -196 186 l-109 114 54 48 c30 26 55 48 55
48 1 0 54 -27 118 -59z m2500 -41 c26 -39 44 -75 41 -80 -9 -15 -161 -99 -252
-138 -137 -60 -319 -117 -328 -102 -3 4 35 36 83 71 48 34 141 117 207 183
111 111 138 130 191 135 6 1 32 -31 58 -69z m-3514 -13 c0 -18 -5 -14 -25 18
-31 51 -31 68 0 32 14 -15 25 -38 25 -50z m2410 42 c55 -7 147 -9 220 -6 l125
6 -49 -25 c-71 -38 -180 -79 -279 -108 l-88 -26 -39 20 c-21 11 -41 24 -44 28
-3 5 0 37 6 71 10 55 14 62 32 57 12 -3 64 -10 116 -17z m495 -155 c49 -222
52 -219 -158 -164 -142 36 -389 132 -375 145 1 1 55 20 118 41 63 21 165 64
225 95 61 32 119 58 131 58 19 1 24 -14 59 -175z m143 160 c70 -3 163 -1 207
4 44 5 82 7 85 5 16 -14 -336 -323 -367 -323 -4 0 -23 64 -41 143 -18 78 -35
153 -39 166 -5 20 -3 23 11 18 10 -4 75 -10 144 -13z m-1353 -20 c9 -14 51
-62 93 -106 l77 -80 -80 7 c-60 5 -96 14 -142 37 -35 17 -63 33 -63 35 0 10
83 133 90 133 4 0 15 -12 25 -26z m2705 -24 c0 -4 -23 -20 -52 -35 l-52 -28
39 46 c30 36 42 44 52 35 7 -6 13 -14 13 -18z m-5275 -21 c140 -145 518 -430
738 -555 37 -21 67 -41 67 -44 -1 -3 -76 -64 -167 -137 l-167 -132 -44 57
c-142 183 -293 429 -404 659 -97 201 -102 235 -23 152z m1695 -35 c89 -110
310 -304 450 -395 l25 -16 -28 -42 c-15 -22 -34 -41 -41 -41 -20 0 -240 64
-310 90 l-58 22 -54 112 c-29 61 -66 146 -83 188 l-29 78 36 30 c20 16 39 30
42 30 3 -1 25 -26 50 -56z m-650 -44 c61 -44 136 -94 166 -112 30 -18 54 -35
54 -39 0 -7 -126 -108 -144 -115 -8 -3 -32 21 -63 63 -107 146 -130 186 -138
242 -5 37 -4 52 3 47 6 -4 61 -42 122 -86z m4410 -36 c80 -64 146 -117 147
-118 2 -2 -4 -24 -13 -51 l-17 -48 -122 -58 c-159 -76 -324 -140 -476 -184
-138 -39 -120 -44 -179 46 l-31 47 55 78 c30 44 78 99 107 124 30 24 85 73
122 109 38 37 107 87 160 117 51 29 94 53 97 53 3 1 70 -51 150 -115z m-947
72 c-10 -13 -22 -22 -26 -19 -9 6 21 43 35 43 5 0 1 -11 -9 -24z m-2913 -143
c26 -65 57 -137 69 -160 11 -23 21 -44 21 -47 0 -8 -68 22 -208 91 -73 37
-131 70 -129 76 3 11 191 166 196 162 1 -2 24 -57 51 -122z m788 72 c5 -4 -62
-105 -69 -105 -6 0 -109 144 -109 153 0 4 171 -43 178 -48z m772 25 c19 -15
21 -20 8 -20 -9 0 -23 -3 -32 -6 -12 -5 -16 0 -16 20 0 31 7 32 40 6z m1306 5
c6 -16 -44 -84 -129 -175 l-52 -55 -145 -3 c-80 -2 -165 -1 -189 3 l-44 7 115
37 c120 40 288 116 373 169 57 36 63 38 71 17z m-1992 -10 c11 -8 15 -15 9
-15 -19 0 -43 12 -43 21 0 13 12 11 34 -6z m-2300 -430 c71 -113 164 -247 225
-323 25 -31 32 -48 25 -58 -5 -7 -81 -70 -169 -139 -151 -120 -160 -125 -168
-103 -18 49 -77 371 -96 528 -19 148 -41 414 -41 480 0 16 28 -28 78 -125 43
-82 109 -199 146 -260z m2335 389 c25 -4 90 -28 145 -54 56 -26 139 -60 186
-75 94 -31 190 -89 190 -114 0 -19 -37 -191 -42 -196 -9 -10 -310 -25 -325
-16 -23 12 -261 255 -297 303 l-27 37 42 66 c34 55 45 66 63 61 11 -3 41 -8
65 -12z m769 -18 c97 -49 242 -101 367 -132 130 -33 123 -38 -77 -54 -176 -14
-488 11 -488 40 0 16 31 154 35 158 4 4 53 16 88 21 4 0 38 -14 75 -33z m1261
-37 c24 -38 41 -72 38 -75 -7 -7 -228 -45 -238 -42 -8 3 142 188 151 188 3 -1
25 -32 49 -71z m-1473 -38 c-8 -35 -17 -65 -20 -68 -3 -3 -28 0 -55 7 -35 8
-72 29 -122 68 l-71 57 127 7 c71 4 133 9 139 11 17 6 18 -14 2 -82z m1934 43
c-25 -25 -53 -50 -63 -55 -16 -9 -16 -8 0 27 13 25 30 42 58 55 22 10 42 18
45 18 2 1 -16 -20 -40 -45z m-2280 26 c39 0 52 -6 95 -46 58 -53 49 -52 -85 3
-87 37 -127 61 -80 49 14 -3 45 -6 70 -6z m3129 -80 c-56 -80 -59 -82 -89 -60
-14 10 -23 21 -20 23 10 8 145 97 148 97 2 0 -16 -27 -39 -60z m-961 -11 c-25
-46 -48 -72 -94 -105 -34 -24 -66 -44 -71 -44 -15 0 -85 109 -78 120 4 6 14
10 23 10 9 1 69 18 132 39 63 22 116 40 118 40 2 1 -12 -26 -30 -60z m-3858
-45 l60 -79 -32 -27 c-18 -16 -35 -25 -39 -20 -3 4 -16 45 -28 92 -12 47 -25
94 -28 105 -7 26 -3 22 67 -71z m586 -104 l100 -43 49 -86 c27 -47 77 -128
112 -180 35 -52 63 -96 63 -98 0 -3 -92 -143 -94 -143 -1 0 -33 9 -73 19 -80
21 -150 70 -336 236 -100 89 -290 293 -285 306 2 4 39 36 83 72 l79 65 101
-53 c55 -29 145 -72 201 -95z m4034 110 c-18 -11 -24 -6 -16 16 5 14 9 15 19
5 9 -9 9 -14 -3 -21z m-3128 -204 c54 -55 98 -101 98 -102 0 -1 -33 1 -72 4
-50 3 -89 13 -123 30 -70 35 -205 113 -205 118 0 3 23 42 52 86 l52 81 50 -59
c27 -32 94 -104 148 -158z m2125 136 c41 -66 42 -67 22 -83 -50 -38 -240 -136
-362 -186 l-132 -54 -100 6 c-55 3 -108 8 -117 11 -36 11 -16 40 65 96 45 32
128 98 185 148 89 78 108 90 140 91 20 0 80 8 132 18 52 10 102 19 110 20 8 0
34 -29 57 -67z m1113 2 c0 -14 -260 -297 -267 -290 -2 2 16 50 40 107 24 57
50 121 57 142 9 28 24 47 57 67 l46 29 33 -26 c19 -14 34 -27 34 -29z m-6927
-82 c341 -285 697 -526 1060 -717 70 -37 127 -70 127 -73 -1 -8 -1312 -1053
-1316 -1049 -2 2 -10 59 -19 127 -67 552 -78 1154 -30 1652 8 84 15 161 15
171 0 9 2 17 5 17 3 0 74 -57 158 -128z m4207 106 c0 -5 -9 -4 -20 2 -11 6
-20 12 -20 14 0 2 9 2 20 -1 11 -3 20 -9 20 -15z m160 -19 c91 -12 365 -16
440 -6 41 6 37 3 -55 -42 -55 -27 -135 -61 -178 -75 l-78 -27 -129 67 c-100
51 -130 71 -130 86 0 16 5 19 23 15 12 -3 60 -11 107 -18z m664 -107 c15 -70
29 -136 32 -148 4 -14 -2 -24 -18 -33 -20 -10 -41 -9 -127 9 -93 19 -386 108
-379 115 2 2 46 20 98 41 52 20 144 61 204 91 60 29 121 53 136 53 26 0 27 -2
54 -128z m245 118 l146 -1 -74 -69 c-88 -82 -241 -194 -252 -183 -7 9 -59 229
-59 252 0 11 10 12 46 7 26 -3 113 -6 193 -6z m1430 -92 c-11 -29 -43 -105
-71 -168 -59 -132 -73 -147 -252 -281 l-119 -90 -108 163 c-60 90 -109 165
-109 168 0 4 53 21 118 39 133 37 361 125 472 182 41 21 78 38 82 39 4 0 -1
-24 -13 -52z m493 -140 l240 -192 -118 -59 c-247 -124 -507 -223 -769 -292
-133 -36 -175 -42 -175 -26 0 5 31 58 68 118 38 59 88 144 112 187 33 61 71
107 169 205 69 69 149 154 176 188 28 35 52 63 54 63 2 0 111 -86 243 -192z
m-2853 123 c62 -32 109 -61 105 -64 -9 -5 -163 -40 -221 -51 -42 -7 -43 -2 -8
152 3 12 7 22 8 22 2 0 54 -26 116 -59z m1601 29 c-23 -32 -40 -39 -40 -16 0
13 36 44 53 45 5 1 -1 -12 -13 -29z m-3570 -97 c84 -95 242 -245 339 -319 28
-22 50 -42 51 -46 0 -10 -239 73 -372 129 -123 51 -119 46 -169 201 l-23 72
34 30 c19 16 40 29 45 30 6 0 49 -44 95 -97z m3510 47 c10 -18 4 -30 -38 -83
-84 -104 -84 -104 -201 -116 -57 -6 -131 -11 -165 -10 l-61 1 40 16 c69 27
328 160 365 186 43 31 47 31 60 6z m-2817 -34 c62 -19 131 -40 155 -46 29 -7
40 -15 35 -23 -34 -56 -126 -192 -131 -194 -6 -3 -119 165 -182 271 -20 33
-21 39 -7 33 10 -4 68 -22 130 -41z m323 25 c5 -5 47 -30 94 -55 47 -25 79
-46 71 -46 -28 0 -216 32 -223 38 -8 8 29 72 41 72 4 0 11 -4 17 -9z m-1197
-104 c13 -39 26 -78 29 -86 3 -8 -31 5 -77 30 l-82 43 48 43 c26 23 50 42 53
42 3 0 16 -32 29 -72z m3751 20 c14 -23 26 -45 28 -49 2 -3 -23 -11 -55 -18
-130 -25 -122 -31 -62 44 29 36 55 66 58 66 3 0 17 -19 31 -43z m-1331 -6 c58
-22 166 -54 239 -72 73 -17 131 -33 130 -34 -2 -2 -55 -29 -118 -61 l-115 -59
-170 1 c-165 1 -400 25 -418 44 -8 7 3 85 19 141 3 10 27 19 78 27 40 7 102
21 137 31 90 26 99 26 218 -18z m-1149 -26 c52 -8 110 -15 127 -15 18 0 77
-17 130 -39 54 -21 130 -49 168 -61 90 -30 205 -105 205 -134 -1 -22 -26 -136
-32 -141 -6 -6 -192 -24 -308 -30 -63 -3 -189 -1 -280 5 l-165 10 -38 43 c-21
23 -56 65 -78 94 l-41 52 23 38 c13 21 47 76 76 122 53 81 55 83 86 77 18 -4
75 -13 127 -21z m680 -17 c0 -41 -26 -128 -38 -128 -49 0 -141 36 -189 73
l-53 42 102 7 c57 4 114 9 128 11 47 7 50 7 50 -5z m-294 -34 c19 -15 33 -29
31 -31 -5 -4 -137 44 -146 52 -2 3 15 5 38 5 30 0 52 -7 77 -26z m-1707 -37
l103 -52 52 -120 c90 -205 175 -364 293 -547 l62 -98 -37 -60 c-37 -60 -37
-61 -77 -56 -114 14 -139 25 -248 110 -205 159 -407 349 -564 533 l-53 61 172
141 c95 77 177 141 183 140 5 0 57 -24 114 -52z m3966 -133 c64 -97 115 -178
113 -179 -24 -20 -222 -130 -314 -176 l-122 -59 -148 0 c-82 0 -206 5 -276 11
-112 11 -128 14 -134 31 -3 11 -2 23 3 27 4 4 62 48 128 97 66 49 188 155 270
235 l150 146 76 12 c62 10 106 19 136 30 2 1 55 -78 118 -175z m1559 79 c-31
-43 -58 -80 -60 -82 -4 -5 -74 42 -74 49 0 6 184 117 188 114 2 -1 -22 -38
-54 -81z m-2586 21 c3 -31 3 -32 -60 -43 -96 -17 -183 -29 -186 -26 -2 1 39
26 90 53 112 61 151 65 156 16z m160 11 c1 -1 -24 -9 -57 -17 -61 -16 -71 -13
-71 23 0 8 117 3 128 -6z m361 -109 c-111 -108 -376 -322 -386 -312 -5 5 -83
334 -83 350 0 7 41 24 95 39 72 21 119 27 197 28 57 1 137 5 178 9 41 4 86 7
100 8 21 1 3 -20 -101 -122z m-3092 -27 c57 -22 158 -55 225 -75 81 -23 141
-47 176 -70 l53 -35 -18 -28 c-180 -280 -259 -400 -266 -401 -11 0 -107 151
-190 299 -60 108 -187 369 -187 385 0 3 24 -4 53 -15 28 -12 98 -39 154 -60z
m1602 65 c3 -2 0 -9 -5 -14 -5 -5 -19 -1 -34 11 l-25 21 30 -7 c16 -4 32 -9
34 -11z m985 -11 c10 -31 76 -344 76 -357 0 -8 -11 -21 -24 -29 -22 -15 -32
-14 -120 4 -185 38 -425 115 -586 187 l-64 30 89 27 c50 15 133 44 185 65 73
29 125 41 225 54 72 10 146 21 165 25 19 5 38 9 42 10 4 1 9 -7 12 -16z m-846
-9 c53 -9 169 -19 257 -23 l160 -6 -90 -33 c-49 -19 -125 -43 -167 -54 l-77
-21 -99 57 c-84 47 -99 59 -95 76 3 11 7 20 9 20 2 0 48 -7 102 -16z m3286
-48 l30 -25 -40 -48 c-56 -68 -134 -154 -134 -147 0 3 18 64 41 135 45 141 40
137 103 85z m-1050 -33 c-50 -87 -133 -213 -141 -213 -14 0 -66 91 -57 99 5 4
38 29 74 54 36 25 81 59 100 76 49 43 56 38 24 -16z m882 -95 c-67 -197 -67
-198 -163 -288 -171 -161 -479 -399 -493 -383 -15 17 -299 447 -297 450 2 1
66 18 142 38 250 64 517 162 760 279 50 24 91 42 93 41 2 -2 -17 -63 -42 -137z
m-4181 61 c31 -39 55 -72 53 -74 -4 -4 -169 22 -175 29 -4 4 57 114 63 116 1
0 27 -32 59 -71z m1063 -6 c17 -9 32 -20 32 -23 0 -8 -169 -44 -175 -38 -4 3
12 90 21 116 3 10 15 6 46 -13 24 -14 58 -34 76 -42z m3876 -397 c268 -214
483 -392 479 -396 -30 -28 -520 -208 -743 -274 -264 -77 -704 -176 -783 -176
-16 0 -35 21 -72 77 -27 42 -51 80 -53 84 -2 4 23 54 56 111 127 222 205 382
293 596 30 73 51 107 96 156 32 34 91 101 132 148 64 75 76 86 91 75 9 -7 236
-187 504 -401z m-6400 265 c111 -128 298 -307 439 -423 62 -50 103 -88 92 -85
-11 3 -40 11 -65 17 -106 26 -325 95 -450 142 -157 59 -430 177 -429 187 0 8
311 261 320 261 4 0 46 -45 93 -99z m2732 30 c137 -62 340 -130 498 -167 117
-27 118 -28 95 -45 -37 -27 -294 -153 -406 -198 -78 -32 -114 -41 -160 -41
-129 0 -463 45 -465 63 0 4 17 95 38 201 l38 193 66 12 c37 7 89 18 116 26 27
7 54 12 59 10 6 -2 60 -26 121 -54z m-1273 4 l98 -14 109 -113 c59 -62 107
-114 105 -116 -9 -10 -395 183 -456 229 -28 21 -16 42 19 35 15 -4 71 -13 125
-21z m867 -17 c0 -7 -18 -92 -39 -188 -30 -140 -41 -176 -55 -178 -20 -4 -298
73 -337 94 -27 14 -279 251 -279 263 0 3 48 3 108 -2 109 -8 402 -1 502 13 85
11 100 11 100 -2z m2224 -44 c37 -56 41 -86 11 -98 -28 -11 -405 -58 -405 -50
0 1 46 26 102 55 76 38 229 128 254 148 1 1 18 -24 38 -55z m-3209 -10 c93
-56 319 -168 428 -210 72 -28 116 -54 169 -97 40 -32 116 -91 170 -130 97 -71
109 -85 86 -105 -19 -14 -253 -41 -454 -52 -168 -8 -470 0 -594 16 -49 6 -52
9 -105 81 -49 68 -53 77 -42 98 27 49 272 435 277 435 3 0 32 -16 65 -36z
m3443 -348 c83 -129 152 -238 152 -244 0 -15 -194 -129 -359 -212 -279 -139
-649 -273 -751 -272 -74 0 -106 14 -112 47 -5 23 4 33 76 88 266 202 532 467
740 737 50 65 73 86 96 89 3 1 74 -104 158 -233z m-1319 198 c5 -4 42 -166 39
-169 -2 -2 -57 -12 -123 -24 -142 -24 -301 -41 -394 -41 l-66 0 117 54 c124
57 268 133 328 172 25 17 43 21 65 17 17 -3 32 -7 34 -9z m1061 10 c0 -12
-152 -194 -246 -295 -55 -58 -146 -150 -204 -204 -105 -98 -357 -305 -371
-305 -10 0 -9 -3 -79 300 -34 146 -63 273 -66 282 -4 13 5 19 38 28 115 30
234 67 340 107 107 40 129 44 256 54 77 6 177 16 223 23 107 17 109 17 109 10z
m-750 -37 l174 -12 -129 -42 c-160 -53 -262 -79 -270 -71 -7 6 -34 114 -35
136 0 10 11 12 43 7 23 -4 121 -12 217 -18z m-4005 -99 c187 -80 511 -187 720
-238 144 -36 178 -48 227 -81 32 -22 58 -42 58 -45 0 -5 -618 -955 -629 -967
-16 -16 -228 407 -347 691 -87 208 -244 673 -244 723 0 5 17 2 38 -7 20 -9
100 -44 177 -76z m5642 -160 c-116 -235 -210 -403 -226 -403 -5 0 -46 52 -90
116 l-80 116 76 53 c94 66 245 186 343 273 41 36 76 64 78 62 2 -2 -43 -100
-101 -217z m-3293 112 c59 -16 111 -31 113 -34 3 -3 0 -28 -7 -56 l-12 -51
-27 17 c-47 30 -211 155 -211 161 0 3 8 2 18 -2 9 -4 66 -20 126 -35z m1396
-37 c0 -5 29 -142 65 -306 36 -164 65 -304 65 -311 0 -8 -16 -24 -35 -36 l-35
-22 -145 36 c-268 68 -573 180 -809 298 -126 63 -258 139 -253 145 3 2 49 15
103 29 55 13 153 42 219 63 112 37 130 40 280 46 165 6 354 27 460 50 74 16
85 17 85 8z m-1079 -28 c57 -8 142 -19 189 -23 l85 -8 -75 -23 c-93 -29 -299
-81 -321 -81 -9 0 -27 8 -39 18 -20 16 -21 21 -10 67 18 78 18 78 44 71 13 -3
70 -13 127 -21z m-1420 -158 c9 -16 6 -17 -43 -11 -29 3 -56 9 -59 13 -4 3 4
23 18 44 l24 39 25 -34 c14 -18 30 -41 35 -51z m1383 -82 c124 -73 385 -200
521 -254 143 -57 375 -132 497 -162 54 -13 98 -26 98 -29 0 -3 -37 -28 -82
-55 -80 -49 -85 -50 -198 -62 -168 -18 -560 -16 -742 3 -136 14 -355 48 -363
56 -4 4 103 537 110 548 14 23 70 8 159 -45z m-1375 16 c42 -6 49 -12 138
-119 l94 -113 -109 55 c-89 45 -274 148 -291 162 -2 2 2 10 9 19 13 16 19 15
159 -4z m1158 -3 c-3 -13 -29 -131 -58 -263 -28 -132 -52 -241 -53 -242 -1 -1
-69 15 -152 37 -162 43 -306 89 -453 147 l-94 38 -111 128 c-61 70 -113 132
-115 139 -2 7 6 9 25 5 16 -4 124 -9 239 -13 214 -7 463 5 635 31 134 20 143
19 137 -7z m2879 -159 c54 -83 83 -137 79 -147 -17 -45 -122 -185 -144 -194
-41 -16 -594 -22 -771 -9 -85 6 -177 14 -204 18 l-49 6 149 52 c268 93 510
205 729 338 61 37 113 67 118 67 4 0 46 -59 93 -131z m162 -249 c37 -57 39
-70 13 -70 -10 0 -46 -3 -81 -7 l-62 -6 43 66 c24 37 46 67 49 67 3 0 20 -23
38 -50z m-3273 -121 c76 -17 105 -28 105 -39 0 -36 -54 -260 -63 -260 -23 0
-358 283 -465 393 l-53 54 185 -62 c102 -34 233 -73 291 -86z m1724 35 c2 -2
2 -6 -1 -9 -7 -8 -157 -37 -169 -33 -6 2 11 17 37 34 43 27 54 29 89 22 22 -5
41 -11 44 -14z m-1441 -94 c232 -40 420 -52 714 -48 153 2 278 2 278 0 0 -2
-91 -48 -202 -102 -221 -107 -410 -184 -615 -251 l-132 -43 -101 68 c-55 38
-104 74 -110 81 -7 8 -1 58 20 160 17 81 30 150 30 152 0 4 -10 5 118 -17z
m-4168 -234 c0 -22 -4 -27 -16 -22 -9 3 -28 9 -42 13 l-26 6 34 28 c38 32 50
26 50 -25z"/>
<path d="M6600 4600 c-6 -11 -8 -20 -6 -20 3 0 10 9 16 20 6 11 8 20 6 20 -3
0 -10 -9 -16 -20z"/>
<path d="M6251 4446 c2 -2 15 -9 29 -15 24 -11 24 -11 6 3 -16 13 -49 24 -35
12z"/>
<path d="M6760 4435 c-14 -8 -20 -14 -15 -14 6 0 21 6 35 14 14 8 21 14 15 14
-5 0 -21 -6 -35 -14z"/>
<path d="M6310 4416 c0 -2 8 -10 18 -17 15 -13 16 -12 3 4 -13 16 -21 21 -21
13z"/>
<path d="M6401 4404 c0 -11 3 -14 6 -6 3 7 2 16 -1 19 -3 4 -6 -2 -5 -13z"/>
<path d="M6495 4360 c-3 -6 1 -7 9 -4 18 7 21 14 7 14 -6 0 -13 -4 -16 -10z"/>
<path d="M6823 4323 c9 -2 23 -2 30 0 6 3 -1 5 -18 5 -16 0 -22 -2 -12 -5z"/>
<path d="M6243 4313 c9 -2 23 -2 30 0 6 3 -1 5 -18 5 -16 0 -22 -2 -12 -5z"/>
<path d="M6385 4271 c-7 -12 12 -24 25 -16 11 7 4 25 -10 25 -5 0 -11 -4 -15
-9z"/>
<path d="M6234 4198 l-29 -33 33 29 c17 17 32 31 32 33 0 8 -8 1 -36 -29z"/>
<path d="M6511 4173 c7 -12 15 -20 18 -17 3 2 -3 12 -13 22 -17 16 -18 16 -5
-5z"/>
<path d="M6798 4183 c7 -3 16 -2 19 1 4 3 -2 6 -13 5 -11 0 -14 -3 -6 -6z"/>
<path d="M6838 4173 c6 -2 18 -2 25 0 6 3 1 5 -13 5 -14 0 -19 -2 -12 -5z"/>
<path d="M6321 4084 c0 -11 3 -14 6 -6 3 7 2 16 -1 19 -3 4 -6 -2 -5 -13z"/>
<path d="M6104 4028 l-19 -23 23 19 c12 11 22 21 22 23 0 8 -8 2 -26 -19z"/>
<path d="M6334 4025 c4 -16 12 -34 17 -39 5 -6 5 4 -1 24 -12 42 -25 55 -16
15z"/>
<path d="M6690 4036 c0 -2 8 -10 18 -17 15 -13 16 -12 3 4 -13 16 -21 21 -21
13z"/>
<path d="M6311 3854 c0 -11 3 -14 6 -6 3 7 2 16 -1 19 -3 4 -6 -2 -5 -13z"/>
<path d="M6302 3810 c0 -14 2 -19 5 -12 2 6 2 18 0 25 -3 6 -5 1 -5 -13z"/>
<path d="M6292 3760 c0 -14 2 -19 5 -12 2 6 2 18 0 25 -3 6 -5 1 -5 -13z"/>
<path d="M6501 3794 c0 -11 3 -14 6 -6 3 7 2 16 -1 19 -3 4 -6 -2 -5 -13z"/>
</g>
</svg>
